<?xml version="1.0" standalone="no"?>
<!DOCTYPE svg PUBLIC "-//W3C//DTD SVG 1.1//EN" "http://www.w3.org/Graphics/SVG/1.1/DTD/svg11.dtd" >
<svg xmlns="http://www.w3.org/2000/svg">
<metadata></metadata>
<defs>
<font id="spiegelcdotsemibold" horiz-adv-x="1024" >
<font-face units-per-em="2048" ascent="1577" descent="-471" />
<missing-glyph horiz-adv-x="409" />
<glyph unicode="&#xfb01;" horiz-adv-x="997" d="M10 862v170h137v64q0 85 12 143.5t43 107.5t91 73t151 24q65 0 123 -14l-22 -160q-46 8 -84 8q-57 0 -79 -40t-22 -124v-82h517v-1032h-213v862h-304v-862h-213v862h-137zM659 1192v217h224v-217h-224z" />
<glyph unicode="&#xfb02;" horiz-adv-x="997" d="M10 862v170h137v55q0 357 351 357q75 0 176 -19h203v-1425h-213v1257q-75 21 -154 21q-78 0 -114 -45t-36 -143v-58h172l-14 -170h-158v-862h-213v862h-137z" />
<glyph horiz-adv-x="0" />
<glyph horiz-adv-x="0" />
<glyph horiz-adv-x="682" />
<glyph unicode="&#xd;" horiz-adv-x="1181" />
<glyph unicode=" "  horiz-adv-x="409" />
<glyph unicode="&#x09;" horiz-adv-x="409" />
<glyph unicode="&#xa0;" horiz-adv-x="409" />
<glyph unicode="!" horiz-adv-x="573" d="M182 1358h269q-6 -541 -68 -985h-133q-62 447 -68 985zM205 0v252h225v-252h-225z" />
<glyph unicode="&#x22;" horiz-adv-x="735" d="M98 1358h213l-37 -549h-139zM424 1358h211l-35 -549h-141z" />
<glyph unicode="#" horiz-adv-x="1150" d="M59 385v168h197l43 287h-166v168h193l55 350h188l-55 -350h223l54 350h190l-55 -350h164v-168h-191l-43 -287h166v-168h-193l-59 -385h-190l59 385h-221l-60 -385h-188l59 385h-170zM444 553h222l45 287h-222z" />
<glyph unicode="$" horiz-adv-x="1085" d="M104 340l207 27q-5 -93 45 -148t172 -55q97 0 154 51t57 137q0 53 -21.5 93t-58.5 66t-84.5 47t-100 39.5t-104.5 39.5t-99.5 51.5t-84.5 70.5t-58.5 101.5t-21.5 140.5q0 151 98.5 249.5t268.5 117.5v193h133v-191q161 -15 241.5 -100t78.5 -219l-211 -27 q0 170 -189 170q-95 0 -145.5 -46.5t-50.5 -115.5q0 -53 22 -93t59.5 -66t86 -47.5t101.5 -40t106.5 -39.5t102 -51t86 -69.5t59.5 -99.5t22 -137q0 -154 -100.5 -260.5t-268.5 -134.5v-209h-133v201q-194 7 -286 97.5t-83 256.5z" />
<glyph unicode="%" horiz-adv-x="1378" d="M80 1020q0 171 74 265.5t200 94.5q262 0 262 -346q0 -171 -74 -265.5t-202 -94.5q-260 0 -260 346zM238 1026q0 -121 25.5 -174t84.5 -53q57 0 83 53t26 174t-26 175t-85 54q-57 0 -82.5 -54t-25.5 -175zM276 0l680 1358h150l-680 -1358h-150zM764 324q0 171 74 265.5 t200 94.5q262 0 262 -346q0 -171 -74 -266t-200 -95q-262 0 -262 347zM924 332q0 -123 25 -176.5t83 -53.5t83.5 53.5t25.5 176.5q0 122 -25.5 174.5t-83.5 52.5t-83 -52.5t-25 -174.5z" />
<glyph unicode="&#x26;" horiz-adv-x="1306" d="M119 330q0 85 31.5 159t76 124.5t109.5 101.5q-143 206 -143 332q0 152 89.5 242.5t262.5 90.5q82 0 147 -24t104.5 -64.5t60 -90t20.5 -103.5q0 -30 -6 -58.5t-13 -51.5t-24.5 -49.5t-28.5 -43.5t-37.5 -42.5t-39 -37.5t-45.5 -38t-44 -34.5t-47 -35.5 q127 -156 295 -308q58 144 37 351h194q18 -258 -84 -463q146 -110 211 -107h8v-180q-16 -4 -28 -4q-103 -22 -318 131q-153 -150 -368 -150q-104 0 -185.5 28t-132 77.5t-76.5 112t-26 135.5zM342 356q0 -93 57.5 -148.5t161.5 -55.5q120 0 207 84q-175 149 -328 342 q-98 -105 -98 -222zM406 1069q0 -87 94 -235q81 65 122.5 120.5t41.5 124.5q0 59 -32.5 99.5t-96.5 40.5q-60 0 -94.5 -42.5t-34.5 -107.5z" />
<glyph unicode="'" horiz-adv-x="409" d="M98 1358h213l-37 -549h-139z" />
<glyph unicode="(" horiz-adv-x="620" d="M109 535q0 246 70.5 482.5t199.5 424.5l137 -60q-93 -169 -148 -397.5t-55 -443.5q0 -454 201 -844l-133 -66q-272 404 -272 904z" />
<glyph unicode=")" horiz-adv-x="620" d="M104 -311q93 171 148 399.5t55 443.5q0 460 -201 844l134 66q272 -399 272 -903q0 -246 -70.5 -483.5t-199.5 -424.5z" />
<glyph unicode="*" horiz-adv-x="1056" d="M164 930v155l270 -18l-160 236l132 75l122 -258l125 254l131 -84l-157 -221l268 27v-156l-272 21l161 -238l-131 -76l-123 258l-124 -254l-132 84l158 221z" />
<glyph unicode="+" d="M86 590v172h334v368h184v-368h334v-172h-334v-369h-184v369h-334z" />
<glyph unicode="," horiz-adv-x="518" d="M121 -281l117 281h-101v258h244v-248l-160 -329z" />
<glyph unicode="-" horiz-adv-x="419" d="M0 479v168h420v-168h-420z" />
<glyph unicode="." horiz-adv-x="518" d="M137 0v258h244v-258h-244z" />
<glyph unicode="/" horiz-adv-x="714" d="M-16 -258l606 1753h158l-607 -1753h-157z" />
<glyph unicode="0" horiz-adv-x="1089" d="M88 664q0 357 115 536.5t352 179.5q238 0 342 -157.5t104 -528.5q0 -357 -114.5 -537t-351.5 -180q-238 0 -342.5 158t-104.5 529zM322 676q0 -291 50 -406.5t173 -115.5q122 0 172.5 117t50.5 411q0 291 -50 405.5t-173 114.5q-82 0 -129.5 -49t-70.5 -163.5t-23 -313.5 z" />
<glyph unicode="1" horiz-adv-x="847" d="M57 1202l338 156h164v-1176h242v-182h-740v182h273v959l-207 -94z" />
<glyph unicode="2" horiz-adv-x="972" d="M59 0v184q43 74 99.5 144t109 121.5t107.5 103t99.5 98.5t80.5 96t56 106t20 120q0 108 -43.5 168.5t-130.5 60.5q-88 0 -134.5 -67t-37.5 -195h-213q-8 119 35 218.5t138 160.5t226 61q189 0 290 -104.5t101 -284.5q0 -90 -28 -171t-71 -140t-104.5 -122t-119.5 -112 t-125 -116t-113 -129h590l-17 -201h-815z" />
<glyph unicode="3" horiz-adv-x="915" d="M41 369h205q-18 -90 24.5 -150.5t143.5 -60.5q93 0 143.5 61.5t50.5 169.5q0 234 -260 234h-78v165h76q116 0 176 48.5t60 173.5q0 95 -45 146.5t-125 51.5t-123 -51.5t-39 -142.5h-201q-12 161 95.5 263.5t287.5 102.5q172 0 272.5 -95t100.5 -259q0 -108 -49 -184.5 t-160 -124.5v-2q119 -21 186.5 -106.5t67.5 -205.5q0 -197 -117 -311.5t-332 -114.5q-184 0 -291 107.5t-69 284.5z" />
<glyph unicode="4" horiz-adv-x="980" d="M12 324v155l482 879h274v-858h166v-176h-166v-324h-219v324h-537zM201 492h354v649h-4z" />
<glyph unicode="5" horiz-adv-x="954" d="M70 379h209q-19 -108 27 -165.5t149 -57.5q109 0 158 71.5t49 188.5q0 64 -12.5 107t-45 77t-93 50t-151.5 16q-108 0 -258 -25l48 717h653l-21 -199h-465l-22 -325q88 10 149 10q226 0 333.5 -103.5t107.5 -308.5q0 -201 -118 -328t-329 -127q-420 0 -368 402z" />
<glyph unicode="6" horiz-adv-x="1044" d="M84 627q0 370 126.5 561.5t364.5 191.5q60 0 113 -11t100 -37t80 -65t50.5 -99t13.5 -134l-207 -22q9 101 -36.5 148.5t-129.5 47.5q-223 0 -246 -444q155 61 267 61q381 0 381 -383q0 -209 -120.5 -337t-330.5 -128q-222 0 -324 155.5t-102 494.5zM313 594 q0 -235 50.5 -338.5t166.5 -103.5q99 0 152 71t53 199q0 119 -46.5 176t-147.5 57q-90 0 -228 -61z" />
<glyph unicode="7" horiz-adv-x="847" d="M33 1159v199h782v-180q-248 -418 -418 -1178h-237q91 345 209.5 660t236.5 499h-573z" />
<glyph unicode="8" horiz-adv-x="1046" d="M68 340q0 66 19.5 121.5t56 97.5t78 72.5t95.5 58.5q-97 56 -150.5 130t-53.5 188q0 164 111.5 268t312.5 104q186 0 296.5 -93.5t110.5 -248.5q0 -111 -58.5 -185t-160.5 -128q58 -30 97.5 -58t79 -70t59.5 -99.5t20 -128.5q0 -180 -127 -286t-342 -106 q-205 0 -324.5 96t-119.5 267zM285 356q0 -96 64.5 -150t182.5 -54q104 0 167 48t63 134q0 42 -16 78.5t-38.5 61.5t-64.5 51.5t-73.5 42t-86.5 40.5q-97 -47 -147.5 -107t-50.5 -145zM330 1040q0 -82 57.5 -136.5t161.5 -98.5q86 41 132 92t46 127q0 89 -53.5 138.5 t-149.5 49.5q-89 0 -141.5 -47t-52.5 -125z" />
<glyph unicode="9" horiz-adv-x="1044" d="M84 918q0 207 121.5 334.5t326.5 127.5q226 0 327.5 -157t101.5 -494q0 -382 -120 -567t-374 -185q-78 0 -143 19t-117.5 58.5t-78 110t-17.5 165.5l208 12q-17 -190 170 -190q114 0 176 103t66 345q-144 -63 -272 -63q-186 0 -280.5 93t-94.5 288zM309 938 q0 -120 44 -175.5t147 -55.5q48 0 114.5 18.5t116.5 42.5q0 233 -50.5 336.5t-168.5 103.5q-94 0 -148.5 -71.5t-54.5 -198.5z" />
<glyph unicode=":" horiz-adv-x="538" d="M158 0v254h243v-254h-243zM158 776v256h243v-256h-243z" />
<glyph unicode=";" horiz-adv-x="538" d="M141 -281l117 281h-100v254h243v-244l-159 -329zM158 776v256h243v-256h-243z" />
<glyph unicode="&#x3c;" d="M78 590v172l854 407v-186l-656 -305l656 -305v-193z" />
<glyph unicode="=" d="M94 389v168h836v-168h-836zM94 793v170h836v-170h-836z" />
<glyph unicode="&#x3e;" d="M92 180v189l656 305l-656 305v190l854 -407v-172z" />
<glyph unicode="?" horiz-adv-x="983" d="M92 1006q-8 158 102.5 266t299.5 108q190 0 296.5 -99t106.5 -265q0 -73 -19 -134t-49 -103.5t-66.5 -80.5t-73 -72t-66.5 -69.5t-49 -82.5t-19 -101h-193q-2 71 13.5 129.5t42.5 98.5t59.5 74.5t65.5 66.5t60.5 66.5t45 82.5t17.5 106q0 95 -49 147t-140 52 q-203 0 -194 -252zM348 0v252h223v-252h-223z" />
<glyph unicode="@" horiz-adv-x="1306" d="M47 606q0 224 86 399.5t242.5 273t357.5 97.5q254 0 393.5 -168.5t139.5 -457.5q0 -244 -101.5 -388.5t-257.5 -144.5q-129 0 -157 129q-27 -55 -80 -94t-115 -39q-201 0 -201 328q0 222 90 349.5t254 127.5q98 0 248 -25l-57 -426q-15 -110 -7.5 -161.5t46.5 -51.5 q79 0 137.5 110t58.5 273q0 243 -102 378.5t-295 135.5q-153 0 -274 -83t-187.5 -229.5t-66.5 -330.5q0 -287 124 -437.5t371 -150.5q201 0 375 78l45 -112q-213 -90 -432 -90q-310 0 -472.5 182.5t-162.5 527.5zM512 557q0 -98 16.5 -145t57.5 -47q55 0 100 86.5t66 240.5 l20 170q-50 12 -96 12q-73 0 -118.5 -89.5t-45.5 -227.5z" />
<glyph unicode="A" horiz-adv-x="1005" d="M8 0q173 749 371 1358h248q206 -632 370 -1358h-227q-47 231 -74 338h-407q-53 -223 -74 -338h-207zM332 516h321q-62 251 -159 604q-92 -318 -162 -604z" />
<glyph unicode="B" horiz-adv-x="1054" d="M131 0v1358h399q199 0 302.5 -86.5t103.5 -247.5q0 -113 -54.5 -188.5t-150.5 -112.5q115 -30 185.5 -108t70.5 -207q0 -85 -30 -157.5t-88 -129t-153.5 -89t-217.5 -32.5h-367zM350 178h150q128 0 192 56.5t64 160.5q0 223 -264 223h-142v-440zM350 793h123 q118 0 177 53.5t59 144.5q0 101 -53.5 147t-172.5 46h-133v-391z" />
<glyph unicode="C" horiz-adv-x="1067" d="M80 647q0 351 133 542t375 191q204 0 304 -119q85 -102 86 -284q0 -31 -3 -64l-205 -22q1 19 1 37q1 133 -39 197q-44 73 -157 73q-258 0 -258 -524q0 -276 62.5 -394t191.5 -118q203 0 236 284h203q-17 -220 -141.5 -344.5t-317.5 -124.5q-235 0 -353 162.5t-118 507.5z " />
<glyph unicode="D" horiz-adv-x="1107" d="M131 0v1358q59 0 169 1t165 1q286 0 423.5 -157.5t137.5 -495.5q0 -707 -573 -707h-322zM354 178h111q171 0 247 120t76 378q0 95 -8 166.5t-30 137.5t-58.5 108t-96.5 67t-142 25h-99v-1002z" />
<glyph unicode="E" horiz-adv-x="892" d="M131 0v1358h707l-19 -180h-465v-385h379v-179h-379v-434h488v-180h-711z" />
<glyph unicode="F" horiz-adv-x="806" d="M131 0v1358h686l-16 -180h-447v-416h365v-178h-365v-584h-223z" />
<glyph unicode="G" horiz-adv-x="1153" d="M84 655q0 357 141 541t398 184q199 0 307 -98q97 -88 97 -262q0 -21 -1 -43l-211 -27q2 19 2 37q0 96 -47 149q-54 62 -162 62q-289 0 -289 -512q0 -269 71.5 -396.5t215.5 -127.5q128 0 223 49v313h-241v178h452v-614q-214 -108 -454 -108q-250 0 -376 172t-126 503z " />
<glyph unicode="H" horiz-adv-x="1130" d="M131 0v1358h223v-551h420v551h225v-1358h-225v614h-420v-614h-223z" />
<glyph unicode="I" horiz-adv-x="487" d="M131 0v1358h223v-1358h-223z" />
<glyph unicode="J" horiz-adv-x="622" d="M6 2v176q59 -16 109 -16q92 0 123.5 60.5t31.5 209.5v926h228v-901q0 -241 -78 -358t-266 -117q-84 0 -148 20z" />
<glyph unicode="K" horiz-adv-x="993" d="M131 0v1358h223v-613l357 613h250l-400 -623l445 -735h-271l-381 674v-674h-223z" />
<glyph unicode="L" horiz-adv-x="761" d="M131 0v1358h223v-1170h410l-14 -188h-619z" />
<glyph unicode="M" horiz-adv-x="1458" d="M113 0q3 736 57 1358h307l250 -971h4l262 971h285q63 -729 63 -1358h-223q1 88 1 181q0 390 -17 857l-2 84h-2l-299 -1122h-181l-288 1122h-2v-84q-2 -73 -8 -244.5t-9 -272.5t-5 -249q-1 -99 -1 -187v-85h-192z" />
<glyph unicode="N" horiz-adv-x="1161" d="M131 0v1358h289l422 -975v975h188v-1358h-244l-469 1069v-1069h-186z" />
<glyph unicode="O" horiz-adv-x="1136" d="M80 664q0 352 129.5 534t370.5 182q246 0 360.5 -170t114.5 -516q0 -351 -129.5 -534t-366.5 -183q-247 0 -363 170.5t-116 516.5zM317 694q0 -282 60.5 -408t195.5 -126q125 0 185.5 123t60.5 381q0 282 -60.5 408t-195.5 126q-125 0 -185.5 -123t-60.5 -381z" />
<glyph unicode="P" horiz-adv-x="958" d="M131 0v1358h346q212 0 331.5 -99t119.5 -313q0 -97 -31 -178t-91 -142t-156 -95.5t-218 -34.5h-78v-496h-223zM354 674h84q130 0 191 65t61 191q0 256 -235 256h-101v-512z" />
<glyph unicode="Q" horiz-adv-x="1136" d="M80 664q0 352 129.5 534t370.5 182q246 0 360.5 -170.5t114.5 -517.5q0 -305 -93 -474t-253 -218h362l-33 -182h-528l29 159q-234 7 -346.5 176t-112.5 511zM317 694q0 -282 60.5 -408t195.5 -126q125 0 185.5 123t60.5 381q0 282 -60.5 408t-195.5 126 q-125 0 -185.5 -123t-60.5 -381z" />
<glyph unicode="R" horiz-adv-x="1021" d="M131 0v1358h369q218 0 330 -97t112 -280q0 -140 -75 -239.5t-205 -133.5l331 -608h-258l-280 569h-101v-569h-223zM354 741h127q109 0 168.5 59.5t59.5 166.5q0 219 -226 219h-129v-445z" />
<glyph unicode="S" horiz-adv-x="1011" d="M78 334l205 26v-11q0 -87 46 -139q49 -54 171 -54q97 0 154 52t57 138q0 67 -35 115t-90.5 76t-123 52.5t-134.5 55t-122.5 72t-90.5 114.5t-35 173q0 168 120 272t316 104q191 0 287 -89q94 -87 94 -230v-6l-211 -27q0 174 -186 174q-94 0 -143.5 -49t-49.5 -119 q0 -53 22 -93t59 -66.5t85 -48.5t101 -41t105.5 -40.5t100.5 -53t85 -71.5t59 -101.5t22 -139.5q0 -175 -130.5 -288.5t-338.5 -113.5q-210 0 -309 92q-91 84 -91 237q0 14 1 28z" />
<glyph unicode="T" horiz-adv-x="790" d="M0 1169v189h803l-15 -189h-280v-1169h-225v1169h-283z" />
<glyph unicode="U" horiz-adv-x="1122" d="M127 479v879h223v-858q0 -195 51.5 -268.5t173.5 -73.5q125 0 174.5 80t49.5 262v858h196v-848q0 -282 -103.5 -407.5t-338.5 -125.5q-106 0 -182 24t-132.5 80t-84 155t-27.5 243z" />
<glyph unicode="V" horiz-adv-x="968" d="M8 1358h232q113 -587 256 -1108q126 449 258 1108h204q-148 -698 -352 -1358h-246q-204 679 -352 1358z" />
<glyph unicode="W" horiz-adv-x="1456" d="M23 1358h215q78 -497 184 -1016h2l213 1016h215l211 -1018h4q80 396 178 1018h191q-116 -714 -267 -1358h-227l-213 991l-211 -991h-223q-148 605 -272 1358z" />
<glyph unicode="X" horiz-adv-x="927" d="M-10 0q177 370 364 709l-325 643l247 26l207 -465q112 228 195 445h225q-142 -290 -325 -625l358 -727l-246 -26l-239 538q-96 -189 -242 -518h-219z" />
<glyph unicode="Y" horiz-adv-x="872" d="M-33 1358h240q102 -283 242 -574q97 194 245 574h209q-153 -385 -360 -783v-575h-224v573q-206 400 -352 785z" />
<glyph unicode="Z" horiz-adv-x="843" d="M25 0v156l526 1020h-510l16 182h744v-158l-525 -1018h555l-14 -182h-792z" />
<glyph unicode="[" horiz-adv-x="628" d="M147 -348v1773h367v-122h-170v-1528h170v-123h-367z" />
<glyph unicode="\" horiz-adv-x="620" d="M-31 1495h170l606 -1753h-170z" />
<glyph unicode="]" horiz-adv-x="628" d="M113 -225h172v1528h-172v122h366v-1773h-366v123z" />
<glyph unicode="^" horiz-adv-x="1105" d="M141 492l334 866h162l334 -866h-172l-244 661l-248 -661h-166z" />
<glyph unicode="_" d="M0 -207h1024v-162h-1024v162z" />
<glyph unicode="`" horiz-adv-x="618" d="M113 1425h215l178 -278h-144z" />
<glyph unicode="a" horiz-adv-x="944" d="M55 268q0 83 27.5 147t87.5 112t162.5 73t245.5 25h30v67q0 103 -37.5 149t-115.5 46q-118 0 -291 -101l-72 146q202 123 395 123q162 0 247 -80.5t85 -255.5v-422q0 -97 10 -297h-180l-12 125q-74 -79 -142 -113.5t-157 -34.5q-137 0 -210 76.5t-73 214.5zM276 295 q0 -74 32.5 -113t90.5 -39q55 0 103.5 31.5t105.5 97.5v203h-41q-89 0 -146.5 -11t-89 -35t-43.5 -55.5t-12 -78.5z" />
<glyph unicode="b" horiz-adv-x="983" d="M121 29v1396h213v-493q128 121 258 121q319 0 319 -496q0 -575 -460 -575q-153 0 -330 47zM334 170q60 -29 139 -29q111 0 162 94.5t51 286.5q0 359 -158 359q-84 0 -194 -113v-598z" />
<glyph unicode="c" horiz-adv-x="870" d="M72 500q0 273 102.5 414t300.5 141q326 0 326 -335q0 -23 -2 -48h-203q3 29 3 55q0 71 -21 111q-28 55 -113 55q-90 0 -130 -88t-40 -275q0 -203 42 -290.5t136 -87.5q107 0 223 155l125 -125q-162 -205 -381 -205q-191 0 -279.5 126t-88.5 397z" />
<glyph unicode="d" horiz-adv-x="980" d="M72 475q0 574 448 574q64 0 127 -13v389h213v-1425h-178l-10 119q-139 -139 -281 -139q-319 0 -319 495zM295 508q0 -177 37.5 -266.5t120.5 -89.5q86 0 194 114v594q-64 31 -137 31q-112 0 -163.5 -94.5t-51.5 -288.5z" />
<glyph unicode="e" horiz-adv-x="946" d="M72 477q0 280 110 429t312 149q374 0 374 -503q0 -35 -2 -73h-569q0 -175 53 -252t156 -77q121 0 278 108l86 -141q-99 -68 -193 -104t-206 -36q-201 0 -300 121t-99 379zM301 629h346v17q-1 118 -41 182q-44 68 -127 69q-78 0 -123.5 -68t-54.5 -200z" />
<glyph unicode="f" horiz-adv-x="532" d="M10 862v170h137v64q0 85 12 143.5t43 107.5t91 73t151 24q75 0 150 -21l-31 -157q-47 12 -100 12q-58 0 -80.5 -40t-22.5 -124v-82h181l-15 -170h-166v-862h-213v862h-137z" />
<glyph unicode="g" horiz-adv-x="921" d="M45 -119q0 72 37.5 122.5t114.5 107.5q-56 22 -79.5 58.5t-23.5 90.5t36.5 107t96.5 88q-69 34 -103 102.5t-34 157.5q0 148 106.5 243t276.5 95q94 0 168 -31l35 209h211l-129 -289q82 -91 82 -213q0 -153 -106 -245.5t-281 -92.5q-39 0 -93 12q-34 -8 -51.5 -30.5 t-17.5 -46.5q0 -30 34 -46t88.5 -21.5t120.5 -10.5t132 -19.5t120.5 -40.5t88.5 -80.5t34 -134.5q0 -168 -118.5 -255t-344.5 -87q-401 0 -401 250zM250 -82q0 -60 57 -98.5t166 -38.5q117 0 175.5 37t58.5 106q0 22 -3.5 39t-15 31t-23.5 23.5t-37.5 17.5t-48.5 13.5 t-65.5 10.5t-79 8.5t-98.5 8.5q-86 -86 -86 -158zM309 729q0 -102 43 -151.5t115 -49.5t113 47t41 136q0 101 -41 151.5t-117 50.5q-70 0 -112 -48t-42 -136z" />
<glyph unicode="h" horiz-adv-x="978" d="M121 0v1425h213v-483q75 56 139.5 83.5t134.5 27.5q133 0 192.5 -79.5t59.5 -268.5v-705h-213v653q0 125 -26.5 177.5t-85.5 52.5q-99 0 -201 -113v-770h-213z" />
<glyph unicode="i" horiz-adv-x="456" d="M117 1192v217h223v-217h-223zM121 0v1032h213v-1032h-213z" />
<glyph unicode="j" horiz-adv-x="456" d="M-35 -209q85 42 120.5 96.5t35.5 163.5v981h213v-952q0 -128 -32.5 -216t-93.5 -141.5t-161 -91.5zM117 1192v217h221v-217h-221z" />
<glyph unicode="k" horiz-adv-x="866" d="M121 0v1425h213v-821l274 428h236l-301 -442l327 -590h-256l-280 539v-539h-213z" />
<glyph unicode="l" horiz-adv-x="456" d="M121 0v1425h213v-1425h-213z" />
<glyph unicode="m" horiz-adv-x="1466" d="M121 0v1032h178l12 -119q140 140 289 140q155 0 207 -144q150 144 299 144q128 0 185 -79.5t57 -268.5v-705h-213v657q0 112 -22.5 169t-82.5 57q-93 0 -188 -113v-770h-213v655q0 123 -24 175.5t-79 52.5q-90 0 -192 -113v-770h-213z" />
<glyph unicode="n" horiz-adv-x="978" d="M121 0v1032h178l12 -119q137 140 297 140q133 0 192.5 -79.5t59.5 -268.5v-705h-213v653q0 125 -26.5 177.5t-85.5 52.5q-90 0 -201 -111v-772h-213z" />
<glyph unicode="o" horiz-adv-x="950" d="M72 502q0 553 417 553q201 0 296.5 -126.5t95.5 -398.5q0 -276 -106 -414.5t-312 -138.5q-202 0 -296.5 126t-94.5 399zM295 528q0 -213 41.5 -302t138.5 -89q95 0 137.5 86.5t42.5 278.5q0 214 -41.5 303.5t-138.5 89.5q-95 0 -137.5 -86.5t-42.5 -280.5z" />
<glyph unicode="p" horiz-adv-x="980" d="M121 -348v1380h178l12 -119q68 70 135.5 105t145.5 35q319 0 319 -496q0 -573 -450 -573q-65 0 -127 12v-344h-213zM334 172q64 -31 139 -31q111 0 162 94.5t51 286.5q0 359 -158 359q-86 0 -194 -117v-592z" />
<glyph unicode="q" horiz-adv-x="980" d="M68 473q0 103 16 189t51 158.5t88.5 123t131.5 79t177 28.5q157 0 326 -45v-1354h-213v436q-122 -106 -260 -106q-317 0 -317 491zM293 516q0 -190 38 -280.5t124 -90.5q88 0 190 107v612q-62 27 -135 27q-110 0 -163.5 -100t-53.5 -275z" />
<glyph unicode="r" horiz-adv-x="634" d="M121 0v1032h178l14 -145q68 86 123 126t127 40q9 0 70 -9l-23 -213q-37 11 -63 11q-56 -1 -100.5 -29t-112.5 -98v-715h-213z" />
<glyph unicode="s" horiz-adv-x="833" d="M66 743q0 141 92.5 226.5t261.5 85.5q155 0 237 -67q73 -60 73 -169q0 -13 -1 -28l-182 -23v12q-1 62 -29 90q-32 32 -108 31q-66 0 -104 -35.5t-38 -93.5q0 -38 21.5 -66t57 -44.5t80.5 -33t92 -30t92 -38.5t80.5 -55.5t57 -82.5t21.5 -119q0 -149 -101.5 -237.5 t-287.5 -88.5q-177 0 -253 73q-62 60 -61 170q0 25 3 52l182 23q-2 -16 -2 -31q0 -62 30 -94q38 -40 126 -39q157 0 157 139q0 45 -27.5 77t-71 50.5t-96.5 35t-106.5 39t-97 53.5t-71 86.5t-27.5 131.5z" />
<glyph unicode="t" horiz-adv-x="610" d="M10 862v170h133v285l211 26v-311h224l-17 -170h-207v-502q0 -114 20.5 -158t86.5 -44q48 0 110 20l27 -166q-116 -35 -209 -35q-146 0 -196 73.5t-50 268.5v543h-133z" />
<glyph unicode="u" horiz-adv-x="978" d="M119 328v704h213v-653q0 -124 26.5 -176.5t85.5 -52.5q97 0 201 112v770h213v-1032h-178l-12 119q-136 -139 -297 -139q-133 0 -192.5 79.5t-59.5 268.5z" />
<glyph unicode="v" horiz-adv-x="794" d="M12 1032h207q56 -272 178 -743q10 -46 11 -53q8 35 10 53q96 359 174 743h194q-103 -476 -274 -1032h-223q-168 534 -277 1032z" />
<glyph unicode="w" horiz-adv-x="1230" d="M23 1032h210q30 -216 136 -719l8 -53l8 53l143 719h215l146 -721l8 -51l6 51q76 327 125 721h182q-67 -459 -221 -1032h-215l-149 713l-7 39h-2l-6 -41l-141 -711h-215q-112 406 -231 1032z" />
<glyph unicode="x" horiz-adv-x="804" d="M-10 0l295 545l-258 485l229 23l166 -334q45 88 143 313h211l-256 -475l293 -555l-229 -20l-201 397q-81 -153 -180 -379h-213z" />
<glyph unicode="y" horiz-adv-x="768" d="M12 1032h205q71 -332 184 -751q99 370 166 751h189q-109 -536 -256 -993q-52 -162 -116 -252.5t-157 -155.5l-114 125q155 109 155 285q0 52 -34 165.5t-100.5 343t-121.5 482.5z" />
<glyph unicode="z" horiz-adv-x="712" d="M37 0v162l381 708h-361l11 162h587v-143l-393 -727h418l-12 -162h-631z" />
<glyph unicode="{" horiz-adv-x="655" d="M63 492v135h29q61 0 83 39.5t22 136.5v323q0 173 54 236t204 63h63v-122h-37q-52 0 -70 -38.5t-18 -142.5v-344q0 -99 -25 -144.5t-102 -72.5q78 -26 102.5 -69t24.5 -144v-393q0 -104 18 -142t68 -38h39v-123h-63q-150 0 -204 64t-54 235v354q0 105 -21 146t-82 41h-31z " />
<glyph unicode="|" horiz-adv-x="589" d="M197 -348v1773h194v-1773h-194z" />
<glyph unicode="}" horiz-adv-x="655" d="M137 -225h39q51 0 69.5 38.5t18.5 141.5v383q0 100 24.5 146t100.5 73q-77 26 -101 68.5t-24 144.5v352q0 103 -18.5 142t-69.5 39h-39v122h64q150 0 204 -64t54 -235v-313q0 -106 20.5 -146t83.5 -40h29v-135h-29q-61 0 -82.5 -39.5t-21.5 -137.5v-364 q0 -172 -53.5 -235.5t-202.5 -63.5h-66v123z" />
<glyph unicode="~" horiz-adv-x="1105" d="M80 879v82q0 160 75 247.5t203 87.5q61 0 110 -20t78 -49.5t55.5 -64.5t45.5 -64.5t46.5 -49.5t60.5 -20q100 0 100 176v53h184v-75q0 -155 -78 -248.5t-215 -93.5q-61 0 -110 20t-77.5 49.5t-55 64.5t-45 64.5t-44 49.5t-55.5 20q-51 0 -72.5 -42.5t-21.5 -125.5v-61 h-184z" />
<glyph unicode="&#xa1;" horiz-adv-x="573" d="M123 -201q6 549 67 985h134q61 -439 67 -985h-268zM143 905v252h226v-252h-226z" />
<glyph unicode="&#xa2;" horiz-adv-x="980" d="M92 680q0 470 350 516v162h125v-160q155 -14 230 -111.5t63 -273.5h-203q21 221 -159 221q-93 0 -138 -79.5t-45 -245.5q0 -183 47 -260.5t154 -77.5q59 0 124.5 43.5t117.5 111.5l125 -129q-129 -163 -316 -198v-199h-125v193q-178 9 -264 122t-86 365z" />
<glyph unicode="&#xa3;" horiz-adv-x="1064" d="M92 0v170q253 79 211 354h-197v158h146q-58 101 -75 151q-27 75 -27 160q0 175 111 281t288 106q202 0 285.5 -105.5t60.5 -285.5h-203q23 215 -153 215q-77 0 -123.5 -49t-46.5 -133q0 -47 12.5 -98t26 -83.5t38 -85t33.5 -73.5h299l-8 -158h-258q23 -251 -143 -336h573 l-20 -188h-830z" />
<glyph unicode="&#xa4;" horiz-adv-x="1105" d="M72 256l159 180q-49 104 -49 234q0 118 56 235l-162 187l117 120l167 -196q78 65 201 65q118 0 178 -65l172 196l111 -112l-168 -189q47 -96 47 -221q0 -132 -53 -233l170 -193l-119 -119l-176 203q-39 -36 -93 -54t-104 -18q-39 0 -90.5 14t-85.5 48l-170 -195zM360 674 q0 -242 185 -242q180 0 180 248q0 244 -182 244q-86 0 -134.5 -64t-48.5 -186z" />
<glyph unicode="&#xa5;" d="M43 1358h240q102 -282 239 -574h2q102 203 246 574h209q-143 -356 -299 -658h270v-127h-332v-174h332v-129h-332v-270h-225v270h-325v129h325v174h-325v127h266q-174 343 -291 658z" />
<glyph unicode="&#xa6;" horiz-adv-x="526" d="M170 315h170v-665h-170v665zM170 766v664h170v-664h-170z" />
<glyph unicode="&#xa7;" horiz-adv-x="1056" d="M158 530q0 91 37.5 161t126.5 132q-62 43 -91.5 102t-29.5 144q0 136 99.5 223.5t268.5 87.5q158 0 247 -68t79 -196l-182 -22q6 133 -156 133q-69 0 -112.5 -39t-43.5 -101q0 -39 18 -69.5t48.5 -51.5t70 -39t83 -35t87.5 -36t83.5 -45t70 -58.5t48.5 -80.5t18 -107 q0 -88 -34.5 -150.5t-117.5 -131.5q158 -88 158 -289q0 -158 -115 -260.5t-303 -102.5q-180 0 -260.5 73.5t-60.5 225.5l184 23q-9 -84 34.5 -126t131.5 -42q83 0 136.5 52t53.5 132q0 45 -19.5 81t-53 60.5t-77 45t-91.5 39t-95.5 37.5t-91 45.5t-77 59.5t-53 82.5 t-19.5 110.5zM344 588q0 -78 64 -129t245 -111q48 42 68 80.5t20 85.5q0 51 -23 85.5t-87 71.5t-191 85q-54 -45 -75 -82.5t-21 -85.5z" />
<glyph unicode="&#xa8;" horiz-adv-x="755" d="M113 1192v217h192v-217h-192zM451 1192v217h190v-217h-190z" />
<glyph unicode="&#xa9;" horiz-adv-x="1546" d="M72 692q0 195 92.5 359t254 260t355.5 96q193 0 355 -96t255 -260t93 -359q0 -145 -55 -277t-148.5 -228t-224 -153t-275.5 -57q-194 0 -355.5 96.5t-254 260.5t-92.5 358zM199 692q0 -121 44.5 -231t120.5 -190t183 -127.5t227 -47.5q119 0 225.5 47t183.5 127t122 190 t45 232q0 163 -76 300t-208.5 216.5t-291.5 79.5q-120 0 -227 -47t-183 -127t-120.5 -190t-44.5 -232zM420 676q0 216 97 330t280 114q162 0 238 -80.5t65 -230.5h-187q9 86 -19 129t-108 43q-161 0 -161 -281q0 -158 41 -226t129 -68q102 0 211 122l114 -106 q-155 -164 -356 -164q-176 0 -260 101t-84 317z" />
<glyph unicode="&#xaa;" horiz-adv-x="739" d="M70 471v139h598v-139h-598zM72 905q0 117 93.5 182.5t287.5 65.5h36v41q0 69 -27.5 98t-86.5 29q-104 0 -217 -70l-58 105q150 82 303 82q242 0 242 -228v-284q0 -117 8 -199h-143l-6 96q-70 -112 -215 -112q-101 0 -159 51.5t-58 142.5zM236 926q0 -51 27 -79t71 -28 q69 0 112 52.5t43 152.5v29h-40q-111 0 -162 -32t-51 -95z" />
<glyph unicode="&#xab;" horiz-adv-x="821" d="M111 592l186 344h129l-121 -344l121 -352h-129zM432 592l178 344h129l-114 -344l114 -352h-129z" />
<glyph unicode="&#xac;" d="M86 590v172h852v-500h-182v328h-670z" />
<glyph unicode="&#xad;" horiz-adv-x="419" d="M0 479v168h420v-168h-420z" />
<glyph unicode="&#xae;" horiz-adv-x="1091" d="M45 1016q0 151 67 279.5t182 203t251 74.5q137 0 252 -74.5t181 -202.5t66 -280q0 -150 -67 -278.5t-182 -203.5t-250 -75q-137 0 -252 74.5t-181.5 202.5t-66.5 280zM158 1018q0 -185 114 -320t273 -135q158 0 272.5 133.5t114.5 319.5q0 185 -114.5 318.5t-272.5 133.5 q-160 0 -273.5 -132t-113.5 -318zM365 731v592h196q187 0 187 -172q0 -58 -28 -102t-75 -68l115 -250h-133l-99 225h-43v-225h-120zM483 1049h56q41 0 64.5 25t23.5 69q0 46 -21 65t-65 19h-58v-178z" />
<glyph unicode="&#xaf;" horiz-adv-x="696" d="M113 1204v152h471v-152h-471z" />
<glyph unicode="&#xb0;" d="M211 1110q0 121 88 206t213 85t212 -85t87 -206q0 -123 -87 -209t-212 -86t-213 86t-88 209zM332 1110q0 -73 53 -125.5t127 -52.5t127 52t53 124q0 73 -53 125.5t-127 52.5t-127 -52t-53 -124z" />
<glyph unicode="&#xb1;" d="M86 0v172h852v-172h-852zM86 721v172h334v369h184v-369h334v-172h-334v-369h-184v369h-334z" />
<glyph unicode="&#xb2;" horiz-adv-x="630" d="M63 633v117q25 50 82 107.5t107 98.5t89.5 94t39.5 101q0 46 -22 72t-58 26q-96 0 -88 -135h-147q-2 118 61.5 189t181.5 71q113 0 174.5 -56.5t61.5 -154.5q0 -60 -24 -112.5t-62 -91t-77 -69t-78 -62t-56 -54.5h305l-16 -141h-474z" />
<glyph unicode="&#xb3;" horiz-adv-x="634" d="M70 848h145q-8 -55 10 -81t70 -26q46 0 70 31.5t24 71.5q0 106 -125 106h-61v117h59q113 0 113 96q0 42 -20 66t-58 24q-47 0 -67 -28t-17 -74h-141q-7 105 61 164t174 59q99 0 160 -55t61 -148q0 -100 -88 -153q51 -19 81 -63.5t30 -102.5q0 -107 -72 -171.5t-194 -64.5 q-48 0 -88 12t-73.5 37.5t-48.5 72.5t-5 110z" />
<glyph unicode="&#xb4;" horiz-adv-x="618" d="M113 1147l180 278h213l-248 -278h-145z" />
<glyph unicode="&#xb6;" horiz-adv-x="1077" d="M70 969q0 63 13.5 118.5t45.5 106t80 86.5t121.5 57t165.5 21h446v-1706h-137v1569h-100v-1569h-140v919h-76q-206 0 -312.5 108.5t-106.5 289.5z" />
<glyph unicode="&#xb7;" horiz-adv-x="518" d="M137 557v258h244v-258h-244z" />
<glyph unicode="&#xb8;" horiz-adv-x="608" d="M113 -348l32 141h236l-94 207h114l95 -205l-33 -143h-350z" />
<glyph unicode="&#xb9;" horiz-adv-x="579" d="M68 1280l196 88h109v-606h121v-129h-410v129h137v452l-110 -51z" />
<glyph unicode="&#xba;" horiz-adv-x="737" d="M68 1063q0 375 309 375q150 0 218.5 -87.5t68.5 -269.5q0 -370 -306 -370q-149 0 -219 84.5t-71 267.5zM72 471v139h585v-139h-585zM233 1083q0 -145 31.5 -204.5t104.5 -59.5q67 0 98 58t31 184q0 148 -29 208t-104 60q-69 0 -100.5 -59t-31.5 -187z" />
<glyph unicode="&#xbb;" horiz-adv-x="821" d="M94 240l115 346l-115 350h127l180 -350l-178 -346h-129zM408 240l120 346l-120 350h127l186 -350l-184 -346h-129z" />
<glyph unicode="&#xbc;" horiz-adv-x="1282" d="M68 1286l196 90h107v-606h123v-131h-408v129h135v453l-110 -52zM227 0l676 1358h146l-676 -1358h-146zM672 164v108l250 463h188v-442h86v-129h-86v-164h-149v164h-289zM819 291h142v272z" />
<glyph unicode="&#xbd;" horiz-adv-x="1312" d="M68 1286l196 90h107v-606h123v-131h-408v129h135v453l-110 -52zM227 0l676 1358h146l-676 -1358h-146zM752 0v117q23 48 65.5 95t84.5 82.5t81 70.5t63.5 74.5t24.5 80.5q0 45 -23 70.5t-61 25.5q-96 0 -88 -135h-145q-2 123 60.5 195t178.5 72q108 0 172 -61t64 -155 q0 -60 -24 -113t-61.5 -92t-76.5 -69.5t-77.5 -62t-55.5 -54.5h305l-14 -141h-473z" />
<glyph unicode="&#xbe;" horiz-adv-x="1300" d="M70 854h145q-8 -54 9.5 -78t70.5 -24q46 0 71 28.5t25 67.5q0 104 -127 104h-61v125h59q115 0 115 92q0 40 -21 64t-59 24q-91 0 -84 -100h-141q-7 104 61.5 163.5t173.5 59.5q99 0 159 -54.5t60 -147.5q0 -101 -86 -156q51 -17 80 -61t29 -103q0 -107 -71 -171t-193 -64 q-48 0 -88 12t-73.5 37t-48.5 72t-5 110zM250 0l676 1358h143l-674 -1358h-145zM690 164v108l250 463h188v-442h84v-129h-84v-164h-149v164h-289zM836 291h143v272h-2z" />
<glyph unicode="&#xbf;" horiz-adv-x="983" d="M86 141q0 73 19 134t49 103.5t66.5 80.5t73 72t66.5 69.5t49 82.5t19 101h193q2 -71 -13.5 -129.5t-42.5 -98.5t-59.5 -74.5t-65.5 -66.5t-60.5 -66.5t-45 -82.5t-17.5 -106q0 -95 49 -147t140 -52q203 0 194 252l191 -61q8 -158 -102.5 -266.5t-299.5 -108.5 q-190 0 -296.5 99t-106.5 265zM412 905v252h223v-252h-223z" />
<glyph unicode="&#xc0;" horiz-adv-x="1005" d="M8 0q173 749 371 1358h248q206 -632 370 -1358h-227q-47 231 -74 338h-407q-53 -223 -74 -338h-207zM231 1640h222l135 -208h-146zM332 516h321q-62 251 -159 604q-92 -318 -162 -604z" />
<glyph unicode="&#xc1;" horiz-adv-x="1005" d="M8 0q173 749 371 1358h248q206 -632 370 -1358h-227q-47 231 -74 338h-407q-53 -223 -74 -338h-207zM332 516h321q-62 251 -159 604q-92 -318 -162 -604zM418 1432l137 208h219l-209 -208h-147z" />
<glyph unicode="&#xc2;" horiz-adv-x="1005" d="M8 0q173 749 371 1358h248q206 -632 370 -1358h-227q-47 231 -74 338h-407q-53 -223 -74 -338h-207zM225 1421l193 217h172l192 -217h-174l-106 127l-107 -127h-170zM332 516h321q-62 251 -159 604q-92 -318 -162 -604z" />
<glyph unicode="&#xc3;" horiz-adv-x="1005" d="M8 0q173 749 371 1358h248q206 -632 370 -1358h-227q-47 231 -74 338h-407q-53 -223 -74 -338h-207zM174 1509q31 70 88 112t125 42q55 0 126.5 -38t115.5 -38q65 0 116 80l86 -74q-33 -68 -88 -106.5t-127 -38.5q-43 0 -85.5 18.5t-79 37t-66.5 18.5q-78 0 -125 -86z M332 516h321q-62 251 -159 604q-92 -318 -162 -604z" />
<glyph unicode="&#xc4;" horiz-adv-x="1005" d="M8 0q173 749 371 1358h248q206 -632 370 -1358h-227q-47 231 -74 338h-407q-53 -223 -74 -338h-207zM260 1450v195h180v-195h-180zM332 516h321q-62 251 -159 604q-92 -318 -162 -604zM567 1450v195h178v-195h-178z" />
<glyph unicode="&#xc5;" horiz-adv-x="1005" d="M8 0q173 749 371 1358h248q206 -632 370 -1358h-227q-47 231 -74 338h-407q-53 -223 -74 -338h-207zM299 1575q0 77 59.5 131.5t143.5 54.5q87 0 142.5 -51t55.5 -131q0 -77 -59 -131.5t-143 -54.5q-86 0 -142.5 52t-56.5 130zM332 516h321q-62 251 -159 604 q-92 -318 -162 -604zM412 1579q0 -37 26 -63.5t64 -26.5q36 0 61 25t25 61q0 37 -26 63.5t-64 26.5q-36 0 -61 -25t-25 -61z" />
<glyph unicode="&#xc6;" horiz-adv-x="1421" d="M-51 0q286 728 592 1358h823l-16 -178h-465v-392h377v-180h-377v-426h485v-182h-711v338h-364q-113 -283 -133 -338h-211zM362 516h295v664h-6q-140 -306 -289 -664z" />
<glyph unicode="&#xc7;" horiz-adv-x="1067" d="M80 647q0 351 133 542t375 191q204 0 304 -119t83 -348l-205 -22q6 161 -38.5 234t-156.5 73q-258 0 -258 -524q0 -276 62.5 -394t191.5 -118q203 0 236 284h203q-13 -201 -120.5 -323t-277.5 -141l82 -187l-30 -143h-351l31 141h236l-82 189q-136 12 -227 81.5t-141 215 t-50 368.5z" />
<glyph unicode="&#xc8;" horiz-adv-x="892" d="M131 0v1358h707l-19 -180h-465v-385h379v-179h-379v-434h488v-180h-711zM242 1640h221l135 -208h-145z" />
<glyph unicode="&#xc9;" horiz-adv-x="892" d="M131 0v1358h707l-19 -180h-465v-385h379v-179h-379v-434h488v-180h-711zM412 1432l137 208h219l-209 -208h-147z" />
<glyph unicode="&#xca;" horiz-adv-x="892" d="M131 0v1358h707l-19 -180h-465v-385h379v-179h-379v-434h488v-180h-711zM211 1421l192 217h172l193 -217h-174l-107 127l-106 -127h-170z" />
<glyph unicode="&#xcb;" horiz-adv-x="892" d="M131 0v1358h707l-19 -180h-465v-385h379v-179h-379v-434h488v-180h-711zM252 1450v195h180v-195h-180zM559 1450v195h178v-195h-178z" />
<glyph unicode="&#xcc;" horiz-adv-x="487" d="M-27 1640h222l135 -208h-146zM131 0v1358h223v-1358h-223z" />
<glyph unicode="&#xcd;" horiz-adv-x="487" d="M131 0v1358h223v-1358h-223zM152 1432l137 208h219l-209 -208h-147z" />
<glyph unicode="&#xce;" horiz-adv-x="487" d="M-37 1421l193 217h172l192 -217h-174l-106 127l-107 -127h-170zM131 0v1358h223v-1358h-223z" />
<glyph unicode="&#xcf;" horiz-adv-x="487" d="M0 1450v195h180v-195h-180zM131 0v1358h223v-1358h-223zM307 1450v195h178v-195h-178z" />
<glyph unicode="&#xd0;" horiz-adv-x="1126" d="M16 614v179h134v565q59 0 168.5 1t164.5 1q285 0 423 -158t138 -495q0 -707 -573 -707h-321v614h-134zM373 178h110q171 0 247.5 120t76.5 378q0 95 -8 166.5t-30 137.5t-59 108t-97 67t-142 25h-98v-387h180v-179h-180v-436z" />
<glyph unicode="&#xd1;" horiz-adv-x="1161" d="M131 0v1358h289l422 -975v975h188v-1358h-244l-469 1069v-1069h-186zM276 1509q31 70 88 112t125 42q55 0 126.5 -38t115.5 -38q66 0 117 80l86 -74q-33 -68 -88 -106.5t-127 -38.5q-43 0 -85.5 18.5t-79.5 37t-67 18.5q-78 0 -125 -86z" />
<glyph unicode="&#xd2;" horiz-adv-x="1136" d="M80 664q0 352 129.5 534t370.5 182q246 0 360.5 -170t114.5 -516q0 -351 -129.5 -534t-366.5 -183q-247 0 -363 170.5t-116 516.5zM311 1640h221l136 -208h-146zM317 694q0 -282 60.5 -408t195.5 -126q125 0 185.5 123t60.5 381q0 282 -60.5 408t-195.5 126 q-125 0 -185.5 -123t-60.5 -381z" />
<glyph unicode="&#xd3;" horiz-adv-x="1136" d="M80 664q0 352 129.5 534t370.5 182q246 0 360.5 -170t114.5 -516q0 -351 -129.5 -534t-366.5 -183q-247 0 -363 170.5t-116 516.5zM317 694q0 -282 60.5 -408t195.5 -126q125 0 185.5 123t60.5 381q0 282 -60.5 408t-195.5 126q-125 0 -185.5 -123t-60.5 -381zM479 1432 l137 208h220l-209 -208h-148z" />
<glyph unicode="&#xd4;" horiz-adv-x="1136" d="M80 664q0 352 129.5 534t370.5 182q246 0 360.5 -170t114.5 -516q0 -351 -129.5 -534t-366.5 -183q-247 0 -363 170.5t-116 516.5zM297 1421l192 217h173l192 -217h-174l-107 127l-106 -127h-170zM317 694q0 -282 60.5 -408t195.5 -126q125 0 185.5 123t60.5 381 q0 282 -60.5 408t-195.5 126q-125 0 -185.5 -123t-60.5 -381z" />
<glyph unicode="&#xd5;" horiz-adv-x="1136" d="M80 664q0 352 129.5 534t370.5 182q246 0 360.5 -170t114.5 -516q0 -351 -129.5 -534t-366.5 -183q-247 0 -363 170.5t-116 516.5zM254 1509q31 70 88 112t125 42q55 0 126.5 -38t115.5 -38q65 0 116 80l86 -74q-33 -68 -88 -106.5t-127 -38.5q-43 0 -85.5 18.5t-79 37 t-66.5 18.5q-78 0 -125 -86zM317 694q0 -282 60.5 -408t195.5 -126q125 0 185.5 123t60.5 381q0 282 -60.5 408t-195.5 126q-125 0 -185.5 -123t-60.5 -381z" />
<glyph unicode="&#xd6;" horiz-adv-x="1136" d="M80 664q0 352 129.5 534t370.5 182q246 0 360.5 -170t114.5 -516q0 -351 -129.5 -534t-366.5 -183q-247 0 -363 170.5t-116 516.5zM317 694q0 -282 60.5 -408t195.5 -126q125 0 185.5 123t60.5 381q0 282 -60.5 408t-195.5 126q-125 0 -185.5 -123t-60.5 -381zM334 1450 v195h180v-195h-180zM641 1450v195h178v-195h-178z" />
<glyph unicode="&#xd7;" d="M72 317l321 353l-321 356l131 129l313 -348l318 348l116 -119l-319 -354l319 -356l-131 -129l-311 348l-315 -348z" />
<glyph unicode="&#xd8;" horiz-adv-x="1136" d="M80 664q0 352 129.5 534t370.5 182q142 0 239 -57l96 195l123 -56l-114 -231q131 -162 131 -537q0 -351 -129.5 -534t-366.5 -183q-137 0 -233 54l-103 -207l-123 55l119 238q-139 167 -139 547zM309 694q0 -212 39 -319l377 760q-59 69 -162 69q-130 0 -192 -123.5 t-62 -386.5zM418 217q54 -63 155 -63q129 0 191.5 124t62.5 386q0 196 -30 313z" />
<glyph unicode="&#xd9;" horiz-adv-x="1122" d="M127 479v879h223v-858q0 -195 51.5 -268.5t173.5 -73.5q125 0 174.5 80t49.5 262v858h196v-848q0 -282 -103.5 -407.5t-338.5 -125.5q-106 0 -182 24t-132.5 80t-84 155t-27.5 243zM315 1640h222l135 -208h-146z" />
<glyph unicode="&#xda;" horiz-adv-x="1122" d="M127 479v879h223v-858q0 -195 51.5 -268.5t173.5 -73.5q125 0 174.5 80t49.5 262v858h196v-848q0 -282 -103.5 -407.5t-338.5 -125.5q-106 0 -182 24t-132.5 80t-84 155t-27.5 243zM496 1432l137 208h219l-209 -208h-147z" />
<glyph unicode="&#xdb;" horiz-adv-x="1122" d="M127 479v879h223v-858q0 -195 51.5 -268.5t173.5 -73.5q125 0 174.5 80t49.5 262v858h196v-848q0 -282 -103.5 -407.5t-338.5 -125.5q-106 0 -182 24t-132.5 80t-84 155t-27.5 243zM295 1421l192 217h172l193 -217h-174l-107 127l-106 -127h-170z" />
<glyph unicode="&#xdc;" horiz-adv-x="1122" d="M127 479v879h223v-858q0 -195 51.5 -268.5t173.5 -73.5q125 0 174.5 80t49.5 262v858h196v-848q0 -282 -103.5 -407.5t-338.5 -125.5q-106 0 -182 24t-132.5 80t-84 155t-27.5 243zM334 1450v195h180v-195h-180zM641 1450v195h178v-195h-178z" />
<glyph unicode="&#xdd;" horiz-adv-x="872" d="M-33 1358h240q102 -283 242 -574q97 194 245 574h209q-153 -385 -360 -783v-575h-224v573q-206 400 -352 785zM365 1432l137 208h219l-209 -208h-147z" />
<glyph unicode="&#xde;" horiz-adv-x="958" d="M131 0v1358h223v-209h125q210 0 329.5 -99t119.5 -313q0 -97 -31 -178t-91 -142t-156 -95.5t-218 -34.5h-78v-287h-223zM354 465h84q130 0 191 65t61 191q0 256 -235 256h-101v-512z" />
<glyph unicode="&#xdf;" horiz-adv-x="1032" d="M123 0v999q0 208 110 326.5t306 118.5q158 0 253 -81t95 -210q0 -60 -22 -110.5t-53.5 -83.5t-62.5 -62t-53 -60.5t-22 -64.5q0 -37 23.5 -69.5t58.5 -56.5t75.5 -56t75.5 -66.5t58.5 -91t23.5 -125.5q0 -139 -91.5 -232t-264.5 -93q-100 0 -182 32l36 170 q64 -39 156 -39q62 0 96.5 35t34.5 92q0 41 -16.5 74.5t-43.5 57t-59 45.5t-64.5 47t-59.5 55.5t-43.5 77t-16.5 104.5q0 57 21.5 103t52.5 76.5t61.5 59t52 67t21.5 85.5q0 79 -41 120.5t-115 41.5q-100 0 -144 -70.5t-44 -209.5v-1006h-213z" />
<glyph unicode="&#xe0;" horiz-adv-x="944" d="M55 268q0 83 27.5 147t87.5 112t162.5 73t245.5 25h30v67q0 103 -37.5 149t-115.5 46q-118 0 -291 -101l-72 146q202 123 395 123q162 0 247 -80.5t85 -255.5v-422q0 -97 10 -297h-180l-12 125q-74 -79 -142 -113.5t-157 -34.5q-137 0 -210 76.5t-73 214.5zM186 1425h215 l179 -278h-144zM276 295q0 -74 32.5 -113t90.5 -39q55 0 103.5 31.5t105.5 97.5v203h-41q-89 0 -146.5 -11t-89 -35t-43.5 -55.5t-12 -78.5z" />
<glyph unicode="&#xe1;" horiz-adv-x="944" d="M55 268q0 83 27.5 147t87.5 112t162.5 73t245.5 25h30v67q0 103 -37.5 149t-115.5 46q-118 0 -291 -101l-72 146q202 123 395 123q162 0 247 -80.5t85 -255.5v-422q0 -97 10 -297h-180l-12 125q-74 -79 -142 -113.5t-157 -34.5q-137 0 -210 76.5t-73 214.5zM276 295 q0 -74 32.5 -113t90.5 -39q55 0 103.5 31.5t105.5 97.5v203h-41q-89 0 -146.5 -11t-89 -35t-43.5 -55.5t-12 -78.5zM375 1147l180 278h213l-248 -278h-145z" />
<glyph unicode="&#xe2;" horiz-adv-x="944" d="M55 268q0 83 27.5 147t87.5 112t162.5 73t245.5 25h30v67q0 103 -37.5 149t-115.5 46q-118 0 -291 -101l-72 146q202 123 395 123q162 0 247 -80.5t85 -255.5v-422q0 -97 10 -297h-180l-12 125q-74 -79 -142 -113.5t-157 -34.5q-137 0 -210 76.5t-73 214.5zM184 1155 l203 270h166l203 -270h-176l-113 176l-113 -176h-170zM276 295q0 -74 32.5 -113t90.5 -39q55 0 103.5 31.5t105.5 97.5v203h-41q-89 0 -146.5 -11t-89 -35t-43.5 -55.5t-12 -78.5z" />
<glyph unicode="&#xe3;" horiz-adv-x="944" d="M55 268q0 83 27.5 147t87.5 112t162.5 73t245.5 25h30v67q0 103 -37.5 149t-115.5 46q-118 0 -291 -101l-72 146q202 123 395 123q162 0 247 -80.5t85 -255.5v-422q0 -97 10 -297h-180l-12 125q-74 -79 -142 -113.5t-157 -34.5q-137 0 -210 76.5t-73 214.5zM98 1260 q34 75 93.5 119t130.5 44q59 0 142 -46t138 -46q67 0 121 103l90 -76q-80 -166 -223 -166q-50 0 -100 23.5t-92.5 47t-73.5 23.5q-44 0 -74.5 -25t-59.5 -75zM276 295q0 -74 32.5 -113t90.5 -39q55 0 103.5 31.5t105.5 97.5v203h-41q-89 0 -146.5 -11t-89 -35t-43.5 -55.5 t-12 -78.5z" />
<glyph unicode="&#xe4;" horiz-adv-x="944" d="M55 268q0 83 27.5 147t87.5 112t162.5 73t245.5 25h30v67q0 103 -37.5 149t-115.5 46q-118 0 -291 -101l-72 146q202 123 395 123q162 0 247 -80.5t85 -255.5v-422q0 -97 10 -297h-180l-12 125q-74 -79 -142 -113.5t-157 -34.5q-137 0 -210 76.5t-73 214.5zM207 1192v217 h192v-217h-192zM276 295q0 -74 32.5 -113t90.5 -39q55 0 103.5 31.5t105.5 97.5v203h-41q-89 0 -146.5 -11t-89 -35t-43.5 -55.5t-12 -78.5zM545 1192v217h190v-217h-190z" />
<glyph unicode="&#xe5;" horiz-adv-x="944" d="M55 268q0 83 27.5 147t87.5 112t162.5 73t245.5 25h30v67q0 103 -37.5 149t-115.5 46q-118 0 -291 -101l-72 146q202 123 395 123q162 0 247 -80.5t85 -255.5v-422q0 -97 10 -297h-180l-12 125q-74 -79 -142 -113.5t-157 -34.5q-137 0 -210 76.5t-73 214.5zM276 295 q0 -74 32.5 -113t90.5 -39q55 0 103.5 31.5t105.5 97.5v203h-41q-89 0 -146.5 -11t-89 -35t-43.5 -55.5t-12 -78.5zM289 1327q0 79 54.5 135t135.5 56t134 -54.5t53 -134.5q0 -78 -55 -133t-134 -55q-81 0 -134.5 53.5t-53.5 132.5zM395 1329q0 -38 23.5 -64t60.5 -26 q36 0 58 26t22 64t-22.5 64t-59.5 26t-59.5 -26t-22.5 -64z" />
<glyph unicode="&#xe6;" horiz-adv-x="1468" d="M55 268q0 169 129 264t394 95h30v67q0 101 -37.5 147t-115.5 46q-118 0 -291 -101l-72 146q202 123 395 123q184 0 263 -115q95 115 266 115q398 0 370 -578h-567q0 -175 52.5 -251t156.5 -76q120 0 277 108l88 -141q-101 -69 -194.5 -104.5t-205.5 -35.5 q-240 0 -325 177q-115 -177 -330 -177q-137 0 -210 76.5t-73 214.5zM276 295q0 -74 32.5 -113t90.5 -39q86 0 147.5 69.5t61.5 193.5v71h-41q-152 0 -221.5 -44.5t-69.5 -137.5zM821 627h348q3 133 -41.5 201.5t-128.5 68.5q-160 0 -178 -270z" />
<glyph unicode="&#xe7;" horiz-adv-x="870" d="M72 500q0 273 102.5 414t300.5 141q348 0 324 -383h-203q10 111 -18 166t-113 55q-90 0 -130 -88t-40 -275q0 -203 42 -290.5t136 -87.5q107 0 223 155l125 -125q-142 -178 -317 -200l88 -187l-33 -143h-350l33 141h235l-86 187q-165 15 -242 141t-77 379z" />
<glyph unicode="&#xe8;" horiz-adv-x="946" d="M72 477q0 280 110 429t312 149q400 0 372 -576h-569q0 -175 53 -252t156 -77q121 0 278 108l86 -141q-99 -68 -193 -104t-206 -36q-201 0 -300 121t-99 379zM205 1425h215l178 -278h-143zM301 629h346q3 131 -40.5 199.5t-127.5 68.5q-78 0 -123.5 -68t-54.5 -200z" />
<glyph unicode="&#xe9;" horiz-adv-x="946" d="M72 477q0 280 110 429t312 149q400 0 372 -576h-569q0 -175 53 -252t156 -77q121 0 278 108l86 -141q-99 -68 -193 -104t-206 -36q-201 0 -300 121t-99 379zM301 629h346q3 131 -40.5 199.5t-127.5 68.5q-78 0 -123.5 -68t-54.5 -200zM399 1147l181 278h213l-248 -278 h-146z" />
<glyph unicode="&#xea;" horiz-adv-x="946" d="M72 477q0 280 110 429t312 149q400 0 372 -576h-569q0 -175 53 -252t156 -77q121 0 278 108l86 -141q-99 -68 -193 -104t-206 -36q-201 0 -300 121t-99 379zM201 1155l202 270h166l203 -270h-176l-113 176l-112 -176h-170zM301 629h346q3 131 -40.5 199.5t-127.5 68.5 q-78 0 -123.5 -68t-54.5 -200z" />
<glyph unicode="&#xeb;" horiz-adv-x="946" d="M72 477q0 280 110 429t312 149q400 0 372 -576h-569q0 -175 53 -252t156 -77q121 0 278 108l86 -141q-99 -68 -193 -104t-206 -36q-201 0 -300 121t-99 379zM223 1192v217h193v-217h-193zM301 629h346q3 131 -40.5 199.5t-127.5 68.5q-78 0 -123.5 -68t-54.5 -200z M561 1192v217h191v-217h-191z" />
<glyph unicode="&#xec;" horiz-adv-x="456" d="M-59 1425h215l178 -278h-144zM121 0v1032h213v-1032h-213z" />
<glyph unicode="&#xed;" horiz-adv-x="456" d="M117 1147l180 278h213l-248 -278h-145zM121 0v1032h213v-1032h-213z" />
<glyph unicode="&#xee;" horiz-adv-x="456" d="M-59 1155l202 270h166l203 -270h-176l-113 176l-112 -176h-170zM121 0v1032h213v-1032h-213z" />
<glyph unicode="&#xef;" horiz-adv-x="456" d="M-39 1192v217h193v-217h-193zM121 0v1032h213v-1032h-213zM299 1192v217h190v-217h-190z" />
<glyph unicode="&#xf0;" horiz-adv-x="958" d="M74 514q0 268 102 401.5t299 133.5q15 0 60 -5q-38 52 -99 113l-133 -72l-106 91l133 71q-50 41 -137 101l192 94q53 -37 127 -96l135 73l109 -90l-140 -76q149 -152 209 -322t60 -394q0 -560 -416 -560q-114 0 -193 38.5t-122.5 113t-61.5 167.5t-18 218zM299 532 q0 -205 41.5 -300t144.5 -95q90 0 132 88t42 283q0 215 -39.5 302t-142.5 87q-97 -1 -137.5 -90t-40.5 -275z" />
<glyph unicode="&#xf1;" horiz-adv-x="978" d="M121 0v1032h178l12 -119q137 140 297 140q133 0 192.5 -79.5t59.5 -268.5v-705h-213v653q0 125 -26.5 177.5t-85.5 52.5q-90 0 -201 -111v-772h-213zM131 1260q34 75 93 119t130 44q59 0 142.5 -46t138.5 -46q67 0 121 103l90 -76q-80 -166 -223 -166q-50 0 -100 23.5 t-93 47t-74 23.5q-44 0 -74 -24.5t-59 -75.5z" />
<glyph unicode="&#xf2;" horiz-adv-x="950" d="M72 502q0 553 417 553q201 0 296.5 -126.5t95.5 -398.5q0 -276 -106 -414.5t-312 -138.5q-202 0 -296.5 126t-94.5 399zM197 1425h215l178 -278h-144zM295 528q0 -213 41.5 -302t138.5 -89q95 0 137.5 86.5t42.5 278.5q0 214 -41.5 303.5t-138.5 89.5q-95 0 -137.5 -86.5 t-42.5 -280.5z" />
<glyph unicode="&#xf3;" horiz-adv-x="950" d="M72 502q0 553 417 553q201 0 296.5 -126.5t95.5 -398.5q0 -276 -106 -414.5t-312 -138.5q-202 0 -296.5 126t-94.5 399zM295 528q0 -213 41.5 -302t138.5 -89q95 0 137.5 86.5t42.5 278.5q0 214 -41.5 303.5t-138.5 89.5q-95 0 -137.5 -86.5t-42.5 -280.5zM393 1147 l180 278h213l-247 -278h-146z" />
<glyph unicode="&#xf4;" horiz-adv-x="950" d="M72 502q0 553 417 553q201 0 296.5 -126.5t95.5 -398.5q0 -276 -106 -414.5t-312 -138.5q-202 0 -296.5 126t-94.5 399zM203 1155l203 270h165l203 -270h-176l-113 176l-112 -176h-170zM295 528q0 -213 41.5 -302t138.5 -89q95 0 137.5 86.5t42.5 278.5 q0 214 -41.5 303.5t-138.5 89.5q-95 0 -137.5 -86.5t-42.5 -280.5z" />
<glyph unicode="&#xf5;" horiz-adv-x="950" d="M72 502q0 553 417 553q201 0 296.5 -126.5t95.5 -398.5q0 -276 -106 -414.5t-312 -138.5q-202 0 -296.5 126t-94.5 399zM125 1260q34 75 93 119t130 44q59 0 142.5 -46t138.5 -46q67 0 121 103l90 -76q-80 -166 -224 -166q-50 0 -100 23.5t-92.5 47t-73.5 23.5 q-44 0 -74 -24.5t-59 -75.5zM295 528q0 -213 41.5 -302t138.5 -89q95 0 137.5 86.5t42.5 278.5q0 214 -41.5 303.5t-138.5 89.5q-95 0 -137.5 -86.5t-42.5 -280.5z" />
<glyph unicode="&#xf6;" horiz-adv-x="950" d="M72 502q0 553 417 553q201 0 296.5 -126.5t95.5 -398.5q0 -276 -106 -414.5t-312 -138.5q-202 0 -296.5 126t-94.5 399zM221 1192v217h193v-217h-193zM295 528q0 -213 41.5 -302t138.5 -89q95 0 137.5 86.5t42.5 278.5q0 214 -41.5 303.5t-138.5 89.5q-95 0 -137.5 -86.5 t-42.5 -280.5zM559 1192v217h191v-217h-191z" />
<glyph unicode="&#xf7;" d="M86 590v172h852v-172h-852zM397 186v244h230v-244h-230zM397 920v243h230v-243h-230z" />
<glyph unicode="&#xf8;" horiz-adv-x="950" d="M72 502q0 553 417 553q99 0 177 -33l77 152l105 -48l-86 -170q119 -125 119 -426q0 -276 -106 -414.5t-312 -138.5q-99 0 -180 33l-76 -153l-105 47l86 172q-116 119 -116 426zM287 528q0 -137 20 -219l277 551q-36 39 -109 39q-101 0 -144.5 -87t-43.5 -284zM367 172 q41 -41 108 -41q100 0 145.5 87.5t45.5 283.5q0 129 -23 223z" />
<glyph unicode="&#xf9;" horiz-adv-x="978" d="M119 328v704h213v-653q0 -124 26.5 -176.5t85.5 -52.5q97 0 201 112v770h213v-1032h-178l-12 119q-136 -139 -297 -139q-133 0 -192.5 79.5t-59.5 268.5zM180 1425h215l178 -278h-143z" />
<glyph unicode="&#xfa;" horiz-adv-x="978" d="M119 328v704h213v-653q0 -124 26.5 -176.5t85.5 -52.5q97 0 201 112v770h213v-1032h-178l-12 119q-136 -139 -297 -139q-133 0 -192.5 79.5t-59.5 268.5zM401 1147l181 278h213l-248 -278h-146z" />
<glyph unicode="&#xfb;" horiz-adv-x="978" d="M119 328v704h213v-653q0 -124 26.5 -176.5t85.5 -52.5q97 0 201 112v770h213v-1032h-178l-12 119q-136 -139 -297 -139q-133 0 -192.5 79.5t-59.5 268.5zM201 1155l202 270h166l203 -270h-176l-113 176l-112 -176h-170z" />
<glyph unicode="&#xfc;" horiz-adv-x="978" d="M119 328v704h213v-653q0 -124 26.5 -176.5t85.5 -52.5q97 0 201 112v770h213v-1032h-178l-12 119q-136 -139 -297 -139q-133 0 -192.5 79.5t-59.5 268.5zM225 1192v217h193v-217h-193zM563 1192v217h191v-217h-191z" />
<glyph unicode="&#xfd;" horiz-adv-x="768" d="M12 1032h205q71 -332 184 -751q99 370 166 751h189q-109 -536 -256 -993q-52 -162 -116 -252.5t-157 -155.5l-114 125q155 109 155 285q0 52 -34 165.5t-100.5 343t-121.5 482.5zM301 1147l180 278h213l-248 -278h-145z" />
<glyph unicode="&#xfe;" horiz-adv-x="983" d="M121 -348v1773h213v-493q128 121 258 121q319 0 319 -496q0 -575 -460 -575q-51 0 -117 12v-342h-213zM334 170q60 -29 139 -29q111 0 162 94.5t51 286.5q0 359 -158 359q-84 0 -194 -113v-598z" />
<glyph unicode="&#xff;" horiz-adv-x="768" d="M12 1032h205q71 -332 184 -751q99 370 166 751h189q-109 -536 -256 -993q-52 -162 -116 -252.5t-157 -155.5l-114 125q155 109 155 285q0 52 -34 165.5t-100.5 343t-121.5 482.5zM135 1192v217h193v-217h-193zM473 1192v217h191v-217h-191z" />
<glyph unicode="&#x152;" horiz-adv-x="1490" d="M80 664q0 352 129.5 534t370.5 182q88 0 159 -22h695l-17 -180h-465v-385h377v-179h-377v-434h486v-180h-711q-77 -23 -168 -23q-247 0 -363 170.5t-116 516.5zM317 694q0 -282 60.5 -408t195.5 -126q89 0 154 43v942q-69 53 -164 53q-125 0 -185.5 -123t-60.5 -381z" />
<glyph unicode="&#x153;" horiz-adv-x="1527" d="M72 502q0 553 417 553q207 0 293 -148q100 148 291 148q399 0 371 -576h-567q-1 -175 52 -252t156 -77q120 0 277 108l88 -141q-99 -68 -193 -104t-206 -36q-213 0 -293 136q-85 -136 -295 -136q-202 0 -296.5 126t-94.5 399zM295 528q0 -213 41.5 -302t138.5 -89 q95 0 137.5 86.5t42.5 278.5q0 214 -41.5 303.5t-138.5 89.5q-95 0 -137.5 -86.5t-42.5 -280.5zM879 629h348q3 131 -41.5 199.5t-128.5 68.5q-78 0 -123.5 -68t-54.5 -200z" />
<glyph unicode="&#x178;" horiz-adv-x="872" d="M-33 1358h240q102 -283 242 -574q97 194 245 574h209q-153 -385 -360 -783v-575h-224v573q-206 400 -352 785zM195 1450v195h180v-195h-180zM502 1450v195h178v-195h-178z" />
<glyph unicode="&#x2c6;" horiz-adv-x="796" d="M113 1155l202 270h166l203 -270h-176l-113 176l-112 -176h-170z" />
<glyph unicode="&#x2dc;" horiz-adv-x="940" d="M113 1260q34 75 93 119t130 44q59 0 142 -46t138 -46q67 0 121 103l90 -76q-80 -166 -223 -166q-50 0 -100 23.5t-92.5 47t-73.5 23.5q-44 0 -74 -24.5t-59 -75.5z" />
<glyph unicode="&#x2000;" horiz-adv-x="880" />
<glyph unicode="&#x2001;" horiz-adv-x="1761" />
<glyph unicode="&#x2002;" horiz-adv-x="880" />
<glyph unicode="&#x2003;" horiz-adv-x="1761" />
<glyph unicode="&#x2004;" horiz-adv-x="587" />
<glyph unicode="&#x2005;" horiz-adv-x="440" />
<glyph unicode="&#x2006;" horiz-adv-x="293" />
<glyph unicode="&#x2007;" horiz-adv-x="293" />
<glyph unicode="&#x2008;" horiz-adv-x="220" />
<glyph unicode="&#x2009;" horiz-adv-x="352" />
<glyph unicode="&#x200a;" horiz-adv-x="97" />
<glyph unicode="&#x2010;" horiz-adv-x="419" d="M0 479v168h420v-168h-420z" />
<glyph unicode="&#x2011;" horiz-adv-x="419" d="M0 479v168h420v-168h-420z" />
<glyph unicode="&#x2012;" horiz-adv-x="419" d="M0 479v168h420v-168h-420z" />
<glyph unicode="&#x2013;" d="M0 549v172h1026v-172h-1026z" />
<glyph unicode="&#x2014;" horiz-adv-x="1740" d="M164 549v172h1413v-172h-1413z" />
<glyph unicode="&#x2018;" horiz-adv-x="464" d="M121 936v244l153 290l82 -36l-108 -242h96v-256h-223z" />
<glyph unicode="&#x2019;" horiz-adv-x="464" d="M109 862l108 240h-96v256h223v-244l-154 -291z" />
<glyph unicode="&#x201a;" horiz-adv-x="466" d="M100 -270l117 270h-96v260h225v-250l-158 -319z" />
<glyph unicode="&#x201c;" horiz-adv-x="782" d="M121 936v244l153 290l82 -36l-108 -242h96v-256h-223zM438 936v244l156 290l80 -36l-109 -242h97v-256h-224z" />
<glyph unicode="&#x201d;" horiz-adv-x="782" d="M109 862l108 240h-96v256h223v-244l-154 -291zM426 862l109 240h-97v256h224v-244l-154 -291z" />
<glyph unicode="&#x201e;" horiz-adv-x="782" d="M109 -240l108 240h-96v256h223v-244l-154 -291zM426 -240l109 240h-97v256h224v-244l-154 -291z" />
<glyph unicode="&#x2022;" horiz-adv-x="1191" d="M285 696q0 130 92 223t221 93q128 0 218.5 -93t90.5 -223q0 -129 -92 -222t-219 -93q-129 0 -220 93t-91 222z" />
<glyph unicode="&#x2026;" horiz-adv-x="1546" d="M137 0v258h244v-258h-244zM651 0v258h244v-258h-244zM1165 0v258h244v-258h-244z" />
<glyph unicode="&#x202f;" horiz-adv-x="352" />
<glyph unicode="&#x2039;" horiz-adv-x="512" d="M109 592l186 348h131l-123 -348l123 -354h-129z" />
<glyph unicode="&#x203a;" horiz-adv-x="512" d="M86 238l125 348l-125 354h131l189 -354l-189 -348h-131z" />
<glyph unicode="&#x205f;" horiz-adv-x="440" />
<glyph unicode="&#x20ac;" horiz-adv-x="1073" d="M14 446v138h140v71v82h-140v133h154q36 248 150 379t307 131q179 0 274 -90t98 -268l-204 -25q1 111 -46.5 165.5t-130.5 54.5q-86 0 -146 -90t-77 -257h316v-133h-326v-65q0 -59 2 -88h324v-138h-310q21 -141 85 -215.5t157 -74.5q71 0 140.5 40t127.5 115l111 -125 q-85 -104 -177 -156.5t-220 -52.5q-188 0 -304 118t-151 351h-154z" />
<glyph unicode="&#x2122;" horiz-adv-x="1198" d="M55 1274v108h445l-11 -108h-151v-465h-119v465h-164zM518 809q8 216 37 573h186l86 -358h2l97 358h168q33 -457 36 -573h-126q-1 55 -7.5 203t-9.5 217h-2l-115 -420h-112l-109 420h-2q-3 -95 -11 -239t-9 -181h-109z" />
<glyph unicode="&#x25fc;" horiz-adv-x="1054" d="M0 0v1055h1055v-1055h-1055z" />
</font>
</defs>
</svg>
