<?xml version="1.0" standalone="no"?>
<!DOCTYPE svg PUBLIC "-//W3C//DTD SVG 1.1//EN" "http://www.w3.org/Graphics/SVG/1.1/DTD/svg11.dtd" >
<svg xmlns="http://www.w3.org/2000/svg">
<metadata></metadata>
<defs>
<font id="spiegelregular" horiz-adv-x="610" >
<font-face units-per-em="2048" ascent="1638" descent="-410" />
<missing-glyph horiz-adv-x="614" />
<glyph horiz-adv-x="0" />
<glyph unicode="&#xd;" horiz-adv-x="614" />
<glyph unicode=" "  horiz-adv-x="614" />
<glyph unicode="&#x09;" horiz-adv-x="614" />
<glyph unicode="&#xa0;" horiz-adv-x="614" />
<glyph unicode="!" d="M186 1358q0 -254 13.5 -504t52.5 -506h84q41 254 55.5 505t14.5 505h-220zM188 0h213v217h-213v-217z" />
<glyph unicode="&#x22;" horiz-adv-x="862" d="M143 1358l47 -527h107l47 527h-201zM494 1358l47 -527h106l47 527h-200z" />
<glyph unicode="#" horiz-adv-x="1218" d="M80 406h196l-65 -406h135l66 406h307l-66 -406h135l66 406h225v126h-205l54 336h217v127h-197l60 363h-136l-59 -363h-307l59 363h-135l-59 -363h-226v-127h205l-53 -336h-217v-126zM432 532l53 336h308l-54 -336h-307z" />
<glyph unicode="$" horiz-adv-x="1218" d="M106 358q10 -162 122 -257t329 -109v-207h123v207q119 6 206 43t143 92t83 123.5t27 140.5q0 98 -35 162.5t-93.5 106.5t-132 66t-150.5 40t-150.5 32.5t-132 42t-93.5 67.5t-35 110q0 96 70 155.5t221 59.5q80 0 134.5 -15.5t88 -43t49 -63.5t13.5 -79l170 19 q-2 80 -35 137t-85 94t-120.5 55.5t-142.5 22.5v201h-123v-201q-92 -6 -167 -35t-129 -75t-82.5 -110.5t-28.5 -142.5q0 -96 34.5 -158.5t92 -103.5t130 -64.5t149.5 -42t149.5 -34.5t130 -43t92.5 -70t35 -110q0 -68 -28 -113t-74 -73.5t-104.5 -41t-119.5 -12.5 q-100 0 -167 17.5t-107.5 48t-59 75.5t-22.5 101z" />
<glyph unicode="%" horiz-adv-x="1443" d="M63 1018q0 -195 68 -279t223 -84q127 0 209 90.5t82 272.5q0 195 -67.5 278.5t-223.5 83.5q-127 0 -209 -90t-82 -272zM193 1022q-1 254 157 254q82 0 124 -56.5t42 -205.5q0 -254 -158 -254q-41 0 -72.5 12t-52 43t-30.5 81t-10 126zM254 0h149l777 1358h-148zM803 342 q0 -195 67.5 -278.5t223.5 -83.5q127 0 208.5 90t81.5 272q0 195 -67 279t-223 84q-127 0 -209 -90.5t-82 -272.5zM932 346q0 254 158 254q82 0 123.5 -56.5t41.5 -205.5q0 -254 -157 -254q-41 0 -73 12.5t-52.5 43t-30.5 80.5t-10 126z" />
<glyph unicode="&#x26;" horiz-adv-x="1382" d="M84 338q0 -86 30.5 -152.5t88 -112.5t135.5 -69.5t174 -23.5q127 0 233.5 41.5t192.5 119.5q92 -68 171 -107.5t128 -39.5q18 0 37.5 1t36.5 5v143q-16 -2 -33 -2h-27q-35 0 -92 30t-125 81q72 100 106 227t25 273h-155q12 -125 -11.5 -229.5t-72.5 -186.5 q-94 78 -188.5 173t-172.5 193q63 39 123 80t107 87t75.5 99.5t28.5 118.5q0 129 -88 210t-252 81q-74 0 -139.5 -21.5t-113.5 -62.5t-76.5 -101t-28.5 -136q0 -70 41.5 -158t109.5 -182q-53 -37 -102 -77t-86 -86t-58.5 -99.5t-21.5 -116.5zM258 352q0 82 50 144.5 t124 115.5q88 -106 191.5 -206.5t205.5 -184.5q-59 -53 -132.5 -80.5t-155.5 -27.5q-53 0 -104.5 12t-91.5 40t-63.5 74t-23.5 113zM362 1075q0 82 57.5 132t135.5 50q94 0 137 -50t43 -134q0 -41 -20.5 -76.5t-54 -67.5t-79 -63.5t-94.5 -62.5q-57 82 -91 151.5t-34 120.5z " />
<glyph unicode="'" d="M205 1358l47 -527h106l48 527h-201z" />
<glyph unicode="(" d="M104 526q0 -117 20.5 -234.5t58.5 -230t92.5 -217t123.5 -192.5l93 47q-111 176 -175.5 385t-64.5 451q0 238 62.5 442.5t185.5 388.5l-97 39q-141 -188 -220 -415.5t-79 -463.5z" />
<glyph unicode=")" d="M113 -309l96 -39q141 188 220 415.5t79 462.5q0 117 -20.5 235t-58.5 230.5t-92 217t-124 192.5l-92 -47q111 -176 175 -385t64 -451q0 -238 -62 -442.5t-185 -388.5z" />
<glyph unicode="*" horiz-adv-x="1218" d="M178 932l348 14l-188 -295l108 -59l164 313l162 -309l102 59l-188 293l352 -14v119l-356 -17l190 299l-100 60l-164 -310l-162 312l-102 -60l188 -297l-354 13v-121z" />
<glyph unicode="+" horiz-adv-x="1218" d="M84 608h459v-458h131v458h461v131h-461v461h-131v-461h-459v-131z" />
<glyph unicode="," d="M195 -262l75 -35l162 313v217h-223v-233h102z" />
<glyph unicode="-" horiz-adv-x="446" d="M0 459h432v127h-432v-127z" />
<glyph unicode="." d="M201 0h225v229h-225v-229z" />
<glyph unicode="/" horiz-adv-x="747" d="M-20 -238h141l647 1711h-141z" />
<glyph unicode="0" horiz-adv-x="1185" d="M80 680q0 -197 36 -331t101.5 -216t159.5 -117.5t211 -35.5q115 0 210 40.5t164.5 126.5t107.5 217.5t38 311.5q0 199 -36 333t-101.5 216t-159.5 116.5t-211 34.5q-115 0 -210 -41t-164.5 -127t-107.5 -217t-38 -311zM254 700q0 152 21.5 255.5t62.5 168t103.5 93 t146.5 28.5q82 0 146.5 -26.5t109.5 -93t67.5 -180.5t22.5 -288q0 -152 -21.5 -255t-62.5 -167.5t-104.5 -93t-145.5 -28.5t-146.5 26.5t-108.5 92t-67.5 179t-23.5 289.5z" />
<glyph unicode="1" horiz-adv-x="1185" d="M172 0h897v127h-350v1231h-121l-414 -154l52 -137l321 129v-1069h-385v-127z" />
<glyph unicode="2" horiz-adv-x="1185" d="M111 932h161q-2 141 78 225t242 84q66 0 123 -18.5t99 -54t66.5 -86t24.5 -111.5q0 -82 -40 -150.5t-106.5 -132t-150.5 -126t-171 -131.5t-172 -147.5t-150 -177.5v-106h972l19 139h-295h-485q53 72 128.5 135.5t159.5 125t167 125t148.5 133t106.5 149.5t41 176 q0 82 -33.5 153.5t-95 125t-148.5 84t-196 30.5q-119 0 -211 -32.5t-154.5 -91t-95 -140.5t-32.5 -180z" />
<glyph unicode="3" horiz-adv-x="1185" d="M104 362q-12 -100 14.5 -171.5t87 -118.5t150.5 -69.5t207 -22.5q131 0 231.5 33.5t168 91t101.5 130t34 152.5q0 68 -24.5 125t-66.5 100t-99.5 70t-125.5 31v4q55 8 102.5 34.5t83.5 67.5t56 92.5t20 108.5q0 82 -32.5 147.5t-92 111.5t-140.5 71.5t-179 25.5 q-113 0 -203 -26.5t-154.5 -74.5t-99 -112.5t-34.5 -138.5h176q0 94 71.5 157.5t229.5 63.5q59 0 111.5 -15.5t90 -46t60 -75.5t22.5 -104q0 -98 -78.5 -165t-259.5 -67h-131v-133h131q104 0 179 -21.5t121.5 -57.5t68 -84t21.5 -103q0 -47 -20.5 -92t-61.5 -82 t-104.5 -59.5t-149.5 -22.5q-182 0 -250 54t-53 191h-179z" />
<glyph unicode="4" horiz-adv-x="1185" d="M68 317h667v-317h164v317h221v138h-221v903h-233l-598 -930v-111zM240 455l491 766l4 4v-770h-495z" />
<glyph unicode="5" horiz-adv-x="1185" d="M104 362q-12 -100 14.5 -171.5t87 -118.5t150.5 -69.5t207 -22.5q111 0 207 25.5t168 79.5t114 136t42 195q0 209 -137.5 308t-393.5 99q-74 0 -144.5 -4t-123.5 -10l29 401h665l10 148h-800l-47 -707q72 12 173 23.5t218 11.5q385 0 385 -268q0 -80 -25.5 -137.5 t-71 -94t-107.5 -53t-138 -16.5q-182 0 -250 54t-53 191h-179z" />
<glyph unicode="6" horiz-adv-x="1185" d="M90 631q0 -317 130 -484t386 -167q111 0 203 33.5t157.5 95t102.5 146.5t37 187q0 193 -121 286t-332 93q-102 0 -201.5 -24.5t-177.5 -59.5l-8 -4q6 82 23.5 171t58.5 164t110.5 123t180.5 48q55 0 104.5 -14.5t85 -43t54 -70.5t14.5 -99h174q6 88 -26.5 156.5 t-92 114.5t-137.5 69.5t-160 23.5q-172 0 -281.5 -70.5t-172 -179t-87 -240.5t-24.5 -255zM264 600q29 12 71 27.5t90 29t100.5 22.5t103.5 9q66 0 122 -15.5t97 -48t63.5 -83.5t22.5 -123q0 -66 -23.5 -121t-64.5 -96t-96.5 -64.5t-120.5 -23.5q-135 0 -211 66.5 t-113 170.5q-20 57 -29.5 121t-11.5 129z" />
<glyph unicode="7" horiz-adv-x="1185" d="M127 1208h772q-172 -262 -315.5 -568t-259.5 -640h174q49 170 112.5 345t138 339t156.5 309t168 260v105h-946v-150z" />
<glyph unicode="8" horiz-adv-x="1185" d="M66 342q0 -80 37.5 -147.5t106.5 -114.5t167 -73.5t219 -26.5q92 0 185 21.5t169 67.5t123 118.5t47 174.5q0 80 -28.5 138.5t-76.5 100.5t-109.5 71.5t-127.5 52.5q57 25 109.5 55.5t91.5 68.5t61.5 87t22.5 111q0 80 -34 141t-95.5 103t-144 63.5t-181.5 21.5 q-84 0 -169 -19.5t-152.5 -61.5t-109.5 -108.5t-42 -160.5q0 -66 19.5 -115t53.5 -88t79 -67.5t98 -50.5q-66 -27 -123 -60t-101 -76t-69.5 -99t-25.5 -128zM240 356q0 57 25.5 99.5t68.5 76t100.5 59t120.5 50.5q74 -25 144.5 -51.5t125 -61t87 -81.5t32.5 -115 q0 -63 -33.5 -106.5t-84 -69t-110 -36.5t-110.5 -11q-59 0 -124.5 11t-119 38.5t-88 76t-34.5 121.5zM309 1047q0 55 28 94t71 63.5t93 34.5t95 10q145 0 223 -54t78 -163q0 -49 -23.5 -85t-63.5 -65.5t-94 -53t-114 -44.5q-59 20 -112.5 44t-93.5 54.5t-63.5 70.5t-23.5 94 z" />
<glyph unicode="9" horiz-adv-x="1185" d="M88 913q0 -193 121 -285.5t332 -92.5q102 0 201.5 24.5t177.5 58.5q8 4 8 5q-6 -82 -23.5 -171.5t-58.5 -164t-110.5 -122.5t-180.5 -48q-55 0 -104.5 14t-85 43t-54 71t-14.5 99h-174q-6 -88 26.5 -156.5t92 -114.5t137.5 -69.5t160 -23.5q172 0 281.5 70.5t172 179 t87 240.5t24.5 255q0 317 -130 484t-386 167q-111 0 -203 -33.5t-157.5 -95t-102.5 -146.5t-37 -188zM260 938q0 66 23.5 121t64.5 96t96.5 64.5t120.5 23.5q133 0 209 -66.5t115 -168.5q20 -57 29.5 -120.5t11.5 -131.5q-29 -12 -71 -27.5t-90 -29t-100.5 -22.5t-103.5 -9 q-66 0 -122 15t-97 48t-63.5 84t-22.5 123z" />
<glyph unicode=":" d="M201 0h225v229h-225v-229zM201 803h225v229h-225v-229z" />
<glyph unicode=";" d="M195 -262l75 -35l162 313v217h-223v-233h102zM207 803h225v229h-225v-229z" />
<glyph unicode="&#x3c;" horiz-adv-x="1220" d="M113 635l962 -422v127l-772 330l772 327v127l-962 -419v-70z" />
<glyph unicode="=" horiz-adv-x="1218" d="M84 414h1051v131h-1051v-131zM84 807h1051v133h-1051v-133z" />
<glyph unicode="&#x3e;" horiz-adv-x="1220" d="M125 215l962 420v70l-962 421v-127l772 -329l-772 -328v-127z" />
<glyph unicode="?" horiz-adv-x="1097" d="M123 1022l153 -39q0 119 70 185.5t203 66.5q59 0 113.5 -16.5t95.5 -49t65.5 -80t24.5 -108.5q0 -72 -31 -126t-77 -100t-99 -88t-97 -88.5t-72 -102.5t-21 -130h147q-4 57 24.5 101.5t75.5 85t102.5 82.5t103.5 95.5t81 122t33 162.5q0 84 -35 154t-94.5 120t-140 77.5 t-175.5 27.5q-109 0 -193.5 -27.5t-142 -75.5t-87 -112.5t-27.5 -136.5zM426 0h209v199h-209v-199z" />
<glyph unicode="@" horiz-adv-x="1626" d="M70 596q0 -152 50 -281t143 -224t227.5 -149.5t302.5 -54.5q86 0 189 17.5t189 52.5l-41 117q-63 -29 -145 -46.5t-156 -17.5q-158 0 -275.5 48t-195 130t-115.5 191.5t-38 230.5t40 238t120.5 209t201.5 148.5t283 56.5q141 0 248.5 -45.5t180.5 -118t109.5 -162.5 t36.5 -182q0 -72 -19.5 -138.5t-54 -119t-83.5 -84t-109 -31.5q-106 0 -90 121l61 483q-66 25 -132 36t-148 11q-199 0 -305.5 -131t-106.5 -371q0 -129 53.5 -196.5t170.5 -67.5q84 0 157.5 52.5t114.5 123.5q-4 -78 46 -127t146 -49q100 0 180 40t135.5 107.5t84 158 t28.5 192.5q0 119 -48 229.5t-138 196.5t-219 137t-289 51q-193 0 -340 -67.5t-247.5 -178t-151.5 -251t-51 -285.5zM588 551q0 182 65.5 270t182.5 88q43 0 80.5 -4t60.5 -12l-19 -141q-10 -72 -36.5 -138.5t-64.5 -119t-81 -83t-86 -30.5q-49 0 -75.5 39t-26.5 131z" />
<glyph unicode="A" horiz-adv-x="1107" d="M31 0h149q25 94 49.5 187.5t53.5 191.5h534q27 -94 52.5 -188.5t52.5 -190.5h172q-92 342 -201 680t-238 678h-200q-117 -328 -224.5 -665t-199.5 -693zM319 508q53 180 109.5 356t116.5 355q0 2 1 3t1 3q124 -346 233 -717h-461z" />
<glyph unicode="B" horiz-adv-x="1103" d="M164 0h358q131 0 224.5 34t154 90t88 130t27.5 156q0 129 -71 216t-208 95v2q113 29 163 114t50 189q0 162 -101 247t-323 85h-362v-228v-1130zM336 143v500h184q180 0 253 -66.5t73 -189.5q0 -51 -15.5 -95t-51.5 -77t-94 -52.5t-142 -19.5h-207zM336 776v443h156 q92 0 148 -17.5t88 -46.5t42 -67.5t10 -81.5q0 -47 -12 -89.5t-46 -73t-93.5 -49t-153.5 -18.5h-139z" />
<glyph unicode="C" horiz-adv-x="1226" d="M84 659q0 -141 33 -265t100.5 -216t168.5 -145t241 -53q111 0 198.5 34.5t151 97t100.5 151t47 194.5h-159q-10 -68 -33 -128.5t-63 -106.5t-98 -72.5t-136 -26.5q-176 0 -271.5 147.5t-95.5 407.5q0 88 17.5 186.5t59.5 180t113.5 136t182.5 54.5q76 0 131 -25.5 t88 -69.5q32 -44 46 -102q9 -39 9 -81q0 -22 -2 -44h160q4 35 3 68q0 72 -18 131q-26 86 -83 144.5t-141 89t-187 30.5q-147 0 -252.5 -58t-175 -156.5t-102.5 -228.5t-33 -274z" />
<glyph unicode="D" horiz-adv-x="1306" d="M164 0h422q164 0 284.5 54.5t199.5 151.5t117 228t38 285q0 125 -33 240.5t-105.5 203.5t-190.5 141.5t-290 53.5h-442v-223v-1135zM336 143v1071h248q137 0 227 -39.5t144.5 -109.5t76 -165t21.5 -204q0 -100 -22.5 -199.5t-75 -177t-138.5 -127t-211 -49.5h-270z" />
<glyph unicode="E" horiz-adv-x="1067" d="M164 0h837v145h-665v496h522v139h-522v430h635l16 148h-823v-1358z" />
<glyph unicode="F" horiz-adv-x="886" d="M164 0h172v618h518v140h-518v452h584l18 148h-774v-1358z" />
<glyph unicode="G" horiz-adv-x="1316" d="M96 653q0 -166 44 -291.5t120 -210.5t178.5 -128t216.5 -43q154 0 286 40t226 99v565h-499v-141h327v-353q-70 -37 -152.5 -54t-170.5 -17q-92 0 -165 39t-124 111.5t-77.5 174t-26.5 228.5q0 94 18 193.5t62 181t120 135t191 53.5q68 0 124 -21.5t97 -59.5t63 -91 q19 -48 19 -106v-11h166q1 15 1 30q0 81 -27 148q-32 80 -93.5 136.5t-147.5 86t-190 29.5q-152 0 -261.5 -61.5t-182 -162.5t-107.5 -231t-35 -268z" />
<glyph unicode="H" horiz-adv-x="1298" d="M164 0h172v639h627v-639h172v1358h-172v-574h-627v574h-172v-1358z" />
<glyph unicode="I" horiz-adv-x="499" d="M164 0h172v1358h-172v-1358z" />
<glyph unicode="J" horiz-adv-x="772" d="M23 4q37 -10 90 -17t102 -7q109 0 183.5 33.5t121.5 94t67.5 145.5t20.5 189v916h-172v-938q0 -195 -98 -262q-52 -34 -136 -34q-76 0 -179 28v-148z" />
<glyph unicode="K" horiz-adv-x="1124" d="M164 0h172v682l569 -682h232l-625 725l541 633h-209l-508 -621v621h-172v-1358z" />
<glyph unicode="L" horiz-adv-x="927" d="M164 0h727l12 150h-567v1208h-172v-1358z" />
<glyph unicode="M" horiz-adv-x="1632" d="M139 0h144q0 268 14.5 529.5t19.5 508.5l5 154l426 -1192h124l424 1188l2 4l7 -154q10 -248 18 -509t8 -529h168q-4 344 -25.5 681t-54.5 677h-205l-387 -1075h-6l-401 1075h-207q-35 -340 -51.5 -678t-22.5 -680z" />
<glyph unicode="N" horiz-adv-x="1327" d="M164 0h143v1182l4 -6l686 -1176h166v1358h-141v-1100v-6l-645 1106h-213v-1358z" />
<glyph unicode="O" horiz-adv-x="1306" d="M88 659q0 -147 34 -271t101.5 -214t171 -141t242.5 -51q156 0 263.5 62t175 163.5t97 231.5t29.5 263t-30.5 255t-96 214.5t-169 147.5t-251.5 55q-156 0 -264 -62.5t-176 -163.5t-97.5 -229t-29.5 -260zM266 672q0 109 19.5 210t64.5 180t118 127t177 48q102 0 174 -41 t118 -114.5t66.5 -177t20.5 -230.5q0 -102 -19.5 -201.5t-64.5 -178.5t-116.5 -127t-178.5 -48q-104 0 -177 44t-117 118.5t-64.5 175t-20.5 215.5z" />
<glyph unicode="P" horiz-adv-x="1087" d="M164 0h172v528h196q119 0 211.5 32t155 89.5t94 134t31.5 166.5q0 184 -114.5 296t-338.5 112h-407v-1358zM336 668v546h221q86 0 143.5 -22.5t90 -60t46 -88t13.5 -107.5q0 -129 -77 -198.5t-226 -69.5h-211z" />
<glyph unicode="Q" horiz-adv-x="1306" d="M88 659q0 -143 32 -265t97.5 -212t163.5 -143t231 -57l-22 -127h569l27 145h-400q113 29 192 99.5t129 165.5t72.5 207.5t22.5 229.5q0 133 -30.5 255t-96 214.5t-169 147.5t-249.5 55q-158 0 -266 -62.5t-176 -163.5t-97.5 -229t-29.5 -260zM266 672q0 109 19.5 210 t64.5 180t118 127t179 48q102 0 174 -41t117 -114.5t65.5 -177t20.5 -230.5q0 -102 -19.5 -201.5t-64.5 -178.5t-116.5 -127t-178.5 -48q-104 0 -177 44t-117 118.5t-64.5 175t-20.5 215.5z" />
<glyph unicode="R" horiz-adv-x="1165" d="M164 0h172v592h125l385 -592h211l-410 602q96 8 170 41t124 84t75.5 116.5t25.5 141.5q0 78 -25.5 145.5t-78.5 118.5t-135 80t-195 29h-444v-1358zM336 729v481h254q84 0 139 -18t87 -51t44 -77t12 -95q0 -72 -24.5 -118t-65.5 -72.5t-96 -38t-117 -11.5h-233z" />
<glyph unicode="S" horiz-adv-x="1249" d="M113 354q2 -193 130 -283.5t361 -90.5q139 0 239.5 32.5t166 88t97.5 127t32 147.5q0 100 -35 165.5t-92.5 108.5t-131 68.5t-149.5 44t-149.5 37t-131 47t-92 74t-34.5 116.5q0 92 74.5 149.5t222.5 57.5q162 -1 226 -57q59 -52 59 -131q0 -7 -1 -15l170 19q0 5 1 10 q0 81 -32 137q-32 60 -91.5 97.5t-141.5 55t-174 17.5q-109 0 -198 -24.5t-151.5 -70.5t-97 -114.5t-34.5 -154.5q0 -98 34.5 -164t91 -108t129 -67.5t148.5 -44t148.5 -36t129 -46t91.5 -72.5t35 -114q0 -66 -28 -110.5t-74 -73.5t-104.5 -41t-119.5 -12q-100 0 -167 17.5 t-106.5 50t-57 78.5t-19.5 106z" />
<glyph unicode="T" horiz-adv-x="989" d="M23 1208h385v-1208h170v1208h378l13 150h-946v-150z" />
<glyph unicode="U" horiz-adv-x="1263" d="M164 498q0 -127 22.5 -223.5t77.5 -162t146.5 -98t228.5 -32.5q125 0 213 35.5t143.5 103t80 165t24.5 220.5v852h-144v-860q0 -197 -69.5 -286t-229.5 -89q-104 0 -167.5 24.5t-97.5 74.5t-45 125t-11 175v836h-172v-860z" />
<glyph unicode="V" horiz-adv-x="1087" d="M16 1358q92 -342 201 -680t238 -678h192q117 328 224.5 665t199.5 693h-149q-82 -317 -173.5 -617.5t-189.5 -593.5q-111 305 -201 606.5t-170 604.5h-172z" />
<glyph unicode="W" horiz-adv-x="1576" d="M29 1358q66 -342 147.5 -679t179.5 -679h172q74 250 142 517t127 546q57 -268 119.5 -534.5t136.5 -528.5h172q98 332 179 669t150 689h-153q-104 -553 -246 -1112q-2 0 -2 -4q-68 260 -129 532.5t-121 583.5h-198q-104 -557 -246 -1110q-2 0 -2 -4q-72 272 -134.5 548.5 t-115.5 565.5h-178z" />
<glyph unicode="X" horiz-adv-x="1069" d="M14 0h166l346 575l4 7l355 -602l182 20l-442 733l393 625h-164l-301 -498l-2 -4l-307 522l-178 -20l393 -653z" />
<glyph unicode="Y" horiz-adv-x="1044" d="M0 1358q98 -201 206.5 -395.5t229.5 -382.5v-580h168v584q119 184 228.5 378.5t209.5 395.5h-153q-74 -162 -163 -318.5t-183 -304.5q0 -2 -2 -2v-2q-190 303 -344 627h-197z" />
<glyph unicode="Z" horiz-adv-x="1069" d="M35 0h950l12 145h-774l746 1100v113h-895l-13 -141h711l-737 -1072v-145z" />
<glyph unicode="[" d="M131 -348h363v110h-222v1559h222v104h-363v-1773z" />
<glyph unicode="\" horiz-adv-x="663" d="M-18 1473l647 -1711h149l-647 1711h-149z" />
<glyph unicode="]" d="M131 -238v-110h363v1773h-363v-104h223v-1559h-223z" />
<glyph unicode="^" horiz-adv-x="1220" d="M217 487h123l276 676l277 -676h123l-354 871h-93z" />
<glyph unicode="_" horiz-adv-x="1220" d="M0 -240v-127h1221v127h-1221z" />
<glyph unicode="`" horiz-adv-x="772" d="M184 1425l240 -278h125l-180 278h-185z" />
<glyph unicode="a" horiz-adv-x="1081" d="M88 266q0 -133 84 -209.5t252 -76.5q131 0 218 50t140 136l13 -166h157q-4 51 -9 116.5t-5 131.5v440q0 109 -22.5 179.5t-68.5 111.5t-114.5 57.5t-159.5 16.5q-139 0 -242.5 -35t-195.5 -86l51 -115q84 51 175.5 81t203.5 30q115 0 167 -53.5t52 -190.5v-63h-110 q-297 0 -441.5 -90.5t-144.5 -264.5zM258 285q0 66 25.5 107.5t78 66t130 34t182.5 9.5h110v-49q0 -68 -22.5 -131.5t-64.5 -111.5t-103.5 -77t-138.5 -29q-104 0 -150.5 51.5t-46.5 129.5z" />
<glyph unicode="b" horiz-adv-x="1110" d="M143 37q86 -25 176.5 -41t188.5 -16q131 0 229.5 45t163 122.5t96 183t31.5 226.5q0 242 -102.5 369t-304.5 127q-80 0 -160 -24.5t-158 -72.5v469h-160v-1388zM303 147v676q78 51 145.5 76t137.5 25q150 0 209 -100.5t59 -282.5q0 -92 -18.5 -171t-58.5 -137.5 t-102.5 -91t-150.5 -32.5q-53 0 -110.5 10t-110.5 28z" />
<glyph unicode="c" horiz-adv-x="999" d="M82 516q0 -115 22.5 -212t74.5 -170t136 -113.5t205 -40.5q82 0 146.5 19t114.5 50t91 70t78 80l-98 96q-59 -78 -136 -128t-181 -50q-88 0 -143.5 41t-87.5 102.5t-43 133t-11 132.5q0 63 13 134t45 129.5t85 96.5t133 38q112 0 182 -58q65 -54 64 -172v-20h146v12 q0 92 -28 161q-30 73 -82 118t-119.5 66.5t-143.5 21.5q-123 0 -211 -46t-144.5 -122t-82 -172.5t-25.5 -196.5z" />
<glyph unicode="d" horiz-adv-x="1110" d="M82 485q0 -115 21.5 -209t67.5 -159.5t121 -101t179 -35.5q131 0 213 50t127 130h4l8 -160h144v1425h-160v-393q-4 0 -6 2q-47 10 -99.5 15.5t-99.5 5.5q-147 0 -246.5 -48.5t-161 -128t-87 -182t-25.5 -211.5zM252 514q0 121 25.5 201t70.5 127t104.5 66.5t127.5 19.5 q66 0 127 -12.5t100 -30.5v-439q0 -82 -27.5 -144t-71.5 -104t-100.5 -63.5t-111.5 -21.5q-68 0 -114 29.5t-74.5 83t-42 127t-13.5 161.5z" />
<glyph unicode="e" horiz-adv-x="1099" d="M82 504q0 -242 118.5 -383t354.5 -141q143 0 252 43.5t211 121.5l-80 111q-66 -55 -161 -98t-210 -43q-147 0 -222 76.5t-89 230.5q-2 18 -3 38.5t-1 43.5h741q1 21 1 42q0 106 -18 190q-20 102 -71 172.5t-135 107.5t-207 37t-213 -43t-149.5 -117t-89 -174.5 t-29.5 -214.5zM256 623q2 57 20.5 113.5t55.5 100.5t92 71.5t131 27.5q145 0 207 -85q61 -82 61 -219v-9h-567z" />
<glyph unicode="f" horiz-adv-x="589" d="M6 905h182v-905h160v905h225l15 127h-240v98q0 88 29 135.5t119 47.5q35 0 68.5 -4t53.5 -9l29 123q-31 6 -68.5 10.5t-72.5 4.5q-90 0 -151.5 -20.5t-98.5 -62.5t-52.5 -103.5t-15.5 -143.5v-76h-182v-127z" />
<glyph unicode="g" horiz-adv-x="1007" d="M45 -111q0 -68 19.5 -115.5t68.5 -78.5t136 -45.5t223 -14.5q100 0 191 17.5t161.5 55.5t112.5 99.5t42 147.5q0 96 -54 149.5t-137 79t-178 32.5t-178 12t-137.5 16.5t-54.5 48.5q0 29 18.5 55.5t43.5 42.5q33 -10 76.5 -15t86.5 -5q104 0 179 27.5t123.5 75.5t72 110.5 t23.5 132.5q0 72 -26 135t-69 98l164 277h-184l-70 -213q-47 23 -100 31t-106 8q-88 0 -162 -26t-126 -72t-81 -110.5t-29 -142.5q0 -84 33 -152.5t98 -107.5q-51 -27 -85 -77t-34 -103q0 -98 89 -133q2 -2 4 -2q-66 -41 -110 -98.5t-44 -139.5zM201 -88q0 55 41 104t88 80 q96 -12 187 -15t163 -14.5t116 -41t44 -95.5q0 -86 -96.5 -129t-249.5 -43q-92 0 -149.5 11.5t-89.5 32t-43 48t-11 62.5zM258 711q0 100 64.5 157.5t158.5 57.5q115 0 176.5 -55.5t61.5 -159.5t-61.5 -160.5t-159.5 -56.5q-115 0 -177.5 53t-62.5 164z" />
<glyph unicode="h" horiz-adv-x="1099" d="M143 0h160v817q78 53 148.5 82t140.5 29q61 0 101 -19.5t62.5 -55.5t32 -86t9.5 -114v-653h159v678q0 104 -21.5 176t-60 116t-95 63.5t-126.5 19.5q-104 0 -187 -30t-157 -73q-2 -2 -4 -2l-2 -2v479h-160v-1425z" />
<glyph unicode="i" horiz-adv-x="446" d="M135 1214h176v181h-176v-181zM143 0h160v1032h-160v-1032z" />
<glyph unicode="j" horiz-adv-x="446" d="M-23 -229l64 -121q68 31 117 67.5t80.5 88t48 120t16.5 160.5v946h-160v-971q0 -70 -10 -115.5t-29.5 -77.5t-51.5 -54.5t-75 -42.5zM139 1214h174v181h-174v-181z" />
<glyph unicode="k" horiz-adv-x="983" d="M143 0h160v571l451 -571h219l-494 606l455 426h-205l-426 -428v821h-160v-1425z" />
<glyph unicode="l" horiz-adv-x="446" d="M143 0h160v1425h-160v-1425z" />
<glyph unicode="m" horiz-adv-x="1679" d="M143 0h160v799q78 53 147.5 91t135.5 38q47 0 79.5 -21.5t54 -59.5t31 -88t9.5 -106v-653h158v799q78 53 148.5 91t135.5 38q47 0 80 -21.5t54.5 -59.5t30.5 -88t9 -106v-653h160v678q0 186 -83 280.5t-224 94.5q-76 0 -166 -43t-191 -119q-68 162 -260 162 q-74 0 -151.5 -36t-169.5 -102q-2 0 -2 -2h-2l-11 119h-133v-1032z" />
<glyph unicode="n" horiz-adv-x="1101" d="M143 0h160v786q76 53 149.5 97.5t161.5 44.5q90 0 137.5 -67.5t47.5 -217.5v-643h159v653q0 217 -85 308.5t-236 91.5q-94 0 -174 -40t-174 -106l-2 -2l-13 127h-131v-1032z" />
<glyph unicode="o" horiz-adv-x="1089" d="M82 508q0 -266 114.5 -397t327.5 -131q121 0 212 43t151.5 117.5t90.5 176t30 218.5q0 113 -25 207t-79 163.5t-140 108.5t-209 39q-119 0 -207 -40t-147.5 -112t-89 -172t-29.5 -221zM258 535q0 184 71.5 285.5t213.5 101.5q137 0 212.5 -95.5t75.5 -318.5 q0 -205 -77.5 -300t-221.5 -95q-123 0 -198.5 101t-75.5 321z" />
<glyph unicode="p" horiz-adv-x="1110" d="M143 -338h160v338q4 0 5 -1t5 -1q47 -10 97.5 -15.5t97.5 -5.5q147 0 246.5 48.5t161 128t87 182t25.5 211.5q0 115 -21.5 208t-67.5 159.5t-121 102.5t-179 36q-131 0 -213 -50.5t-127 -130.5h-4l-8 160h-144v-1370zM303 147v439q0 82 27.5 144.5t71.5 104.5t100.5 63.5 t111.5 21.5q68 0 114 -30t74.5 -83t42 -127t13.5 -162q0 -121 -25.5 -200.5t-70.5 -127t-104.5 -67t-127.5 -19.5q-66 0 -127 12.5t-100 30.5z" />
<glyph unicode="q" horiz-adv-x="1110" d="M82 475q0 -242 102.5 -368.5t304.5 -126.5q80 0 160 24.5t158 71.5v-414h160v1333q-88 25 -177.5 41.5t-187.5 16.5q-133 0 -230.5 -45t-162 -123t-96 -183.5t-31.5 -226.5zM256 492q0 92 18.5 170.5t58.5 137t102.5 91.5t150.5 33q53 0 110.5 -10.5t110.5 -28.5v-676 q-78 -51 -145.5 -75.5t-137.5 -24.5q-76 0 -127 25.5t-82.5 74.5t-45 119.5t-13.5 163.5z" />
<glyph unicode="r" horiz-adv-x="649" d="M143 0h160v575q0 160 80 239t205 79q10 0 24.5 -1t26.5 -3l12 158q-29 6 -57 6q-104 0 -181 -58.5t-120 -132.5h-4l-15 170h-131v-1032z" />
<glyph unicode="s" horiz-adv-x="1042" d="M98 291q-4 -25 -4 -48q0 -40 12 -76q18 -56 65.5 -98t130.5 -65.5t206 -23.5q76 0 151.5 17t137 54t100.5 96.5t39 145.5q0 78 -28.5 128t-75 83t-104.5 50t-120.5 30.5t-121 25t-104.5 32t-74.5 52t-28.5 84.5q0 70 55 111t168 41q114 0 182 -40q64 -38 64 -102v-8 l145 13q1 9 0 18q-1 57 -23 99q-26 48 -78.5 80t-124 47.5t-157.5 15.5q-90 0 -163 -20.5t-124 -57.5t-79.5 -90.5t-28.5 -116.5q0 -106 48 -165.5t121.5 -91.5t157.5 -47t158 -34.5t122 -53.5t48 -104q0 -47 -23.5 -77.5t-60.5 -49t-81 -25.5t-85 -7q-144 0 -212 50 q-55 40 -55 108q0 16 3 34z" />
<glyph unicode="t" horiz-adv-x="649" d="M6 905h182v-629q0 -160 61.5 -228t213.5 -68q53 0 97 7t85 19l-22 123q-23 -10 -59 -17.5t-70 -7.5q-90 0 -118 48.5t-28 138.5v614h230l16 127h-246v314l-160 -21v-293h-182v-127z" />
<glyph unicode="u" horiz-adv-x="1103" d="M143 348q0 -201 80 -284.5t219 -83.5q100 0 185.5 41.5t183.5 113.5l2 2l16 -137h132v1032h-160v-772q-78 -59 -163 -107.5t-175 -48.5q-78 0 -119 61.5t-41 213.5v653h-160v-684z" />
<glyph unicode="v" horiz-adv-x="880" d="M4 1032q33 -117 71 -234.5t81 -243.5t93 -263t109 -291h172q55 152 102.5 288t89.5 262t77.5 244.5t70.5 237.5h-149q-63 -223 -131 -435t-139 -421q-78 217 -148 430t-131 426h-168z" />
<glyph unicode="w" horiz-adv-x="1341" d="M16 1032q61 -258 129 -514t154 -518h174l193 821l2 6l213 -827h174q161 516 270 1032h-147q-37 -211 -86.5 -421t-114.5 -423l-213 844h-176l-199 -842q-61 211 -111.5 421t-91.5 421h-170z" />
<glyph unicode="x" horiz-adv-x="892" d="M10 0h172l254 414l4 6l271 -440l174 20l-357 559l314 473h-172l-211 -348l-4 -6l-232 375l-172 -21l314 -493z" />
<glyph unicode="y" horiz-adv-x="854" d="M8 1032q53 -180 115.5 -366.5t142.5 -403.5q10 -27 20.5 -57.5t17.5 -61t12.5 -57.5t5.5 -45q0 -100 -44.5 -164.5t-119.5 -112.5l84 -114q43 27 79.5 59.5t70.5 78.5t64.5 108.5t63.5 150.5q53 145 98.5 275.5t85 250t74.5 233t68 226.5h-150q-59 -209 -123.5 -406.5 t-130.5 -394.5l-1 -1t-1 -3q-147 406 -264 805h-168z" />
<glyph unicode="z" horiz-adv-x="866" d="M55 0h760l10 125h-577l540 790v117h-694l-10 -127h512l-541 -780v-125z" />
<glyph unicode="{" d="M68 508q51 0 81.5 -10.5t48 -39t23.5 -81.5t6 -139v-344q0 -123 49.5 -177.5t145.5 -54.5h121v121h-90q-45 0 -58.5 38t-13.5 91v358q0 82 -8 134.5t-25.5 85t-45.5 50t-66 29.5q-2 2 -5 2q41 10 70 27.5t46.5 51.5t25.5 90.5t8 148.5v285q0 68 16.5 98.5t69.5 30.5h76 v122h-111q-90 0 -147.5 -54t-57.5 -193v-336q0 -63 -7 -103.5t-24.5 -64t-48 -31.5t-79.5 -8v-127z" />
<glyph unicode="|" horiz-adv-x="528" d="M203 -348h123v1773h-123v-1773z" />
<glyph unicode="}" d="M68 -217v-121h120q96 0 145.5 54.5t49.5 177.5v344q0 86 6 139t23.5 81.5t48.5 39t82 10.5v127q-49 0 -80 8t-48.5 31.5t-24.5 63.5t-7 104v336q0 70 -15.5 116.5t-43 76.5t-64.5 42t-82 12h-110v-122h75q53 0 69.5 -31t16.5 -98v-285q0 -90 8.5 -146.5t25 -90.5t44 -51 t68.5 -28q2 -2 4 -2q-39 -12 -67.5 -29.5t-47 -50t-27 -86t-8.5 -135.5v-358q0 -53 -13 -91t-58 -38h-90z" />
<glyph unicode="~" horiz-adv-x="1220" d="M150 909h137v64q0 66 28.5 108.5t87.5 42.5q49 0 83 -40t74 -87t97.5 -87t149.5 -40q68 0 120 26t86 67t51 95t17 113v48h-139v-50q0 -78 -35 -121.5t-94 -43.5q-41 0 -70.5 18t-55 47t-51.5 61.5t-57.5 61.5t-75.5 47t-106 18q-113 0 -180 -77.5t-67 -212.5v-58z" />
<glyph unicode="&#xa1;" d="M174 -201h240q0 254 -17.5 504t-56.5 506h-88q-41 -254 -59.5 -505t-18.5 -505zM188 940h213v217h-213v-217z" />
<glyph unicode="&#xa2;" horiz-adv-x="1220" d="M168 694q0 -100 20.5 -188t66.5 -153.5t118.5 -107.5t179.5 -50v-195h123v197q66 6 118 25.5t95 47t79 60t68 65.5l-98 90q-51 -63 -131 -112t-195 -49q-78 0 -131 35.5t-86 91t-46 123t-13 131.5q0 55 12 117.5t43 116.5t83 90t132 36q137 0 196.5 -61.5t55.5 -161.5 h146q0 82 -26 144.5t-70 105.5t-104.5 65.5t-127.5 28.5v172h-123v-174q-102 -14 -175 -60.5t-120 -113t-68.5 -148.5t-21.5 -168z" />
<glyph unicode="&#xa3;" horiz-adv-x="1220" d="M172 0h879l12 147h-633q63 47 98 104.5t50.5 114t13.5 109.5t-12 90h280v117h-325q-35 74 -70 150.5t-35 166.5q0 111 61.5 176.5t155.5 65.5q113 0 159 -64.5t32 -183.5h166q20 172 -71 277.5t-282 105.5q-80 0 -152.5 -26.5t-127 -77.5t-86 -124t-31.5 -167 q0 -90 30.5 -160.5t65.5 -138.5h-168v-117h217q18 -55 20.5 -120.5t-22 -125t-79 -106.5t-146.5 -66v-147z" />
<glyph unicode="&#xa4;" horiz-adv-x="1220" d="M84 244l92 -92l193 192q29 -23 61.5 -37t62 -21t55 -9.5t38.5 -2.5q47 0 114.5 16.5t133.5 65.5l204 -204l92 92l-196 198q47 66 60.5 132.5t13.5 113.5q0 70 -18.5 124t-51.5 103l195 195l-95 94l-196 -198q-29 27 -61.5 41t-62.5 21t-55.5 8t-37.5 1q-47 0 -114.5 -13 t-135.5 -60l-199 200l-92 -94l195 -195q-51 -72 -65.5 -136t-14.5 -111q0 -59 12 -121t51 -123zM356 668q0 272 248 272q109 0 178.5 -61.5t69.5 -204.5q0 -74 -20.5 -124t-54.5 -81t-78 -44t-93 -13q-131 0 -190.5 63.5t-59.5 192.5z" />
<glyph unicode="&#xa5;" horiz-adv-x="1220" d="M84 1358q172 -350 375 -682h-348v-119h409v-156h-409v-120h409v-281h168v281h410v120h-410v156h410v119h-350q102 166 196 337t182 345h-153q-74 -162 -163 -318.5t-185 -306.5h-2q-190 305 -342 625h-197z" />
<glyph unicode="&#xa6;" horiz-adv-x="528" d="M203 313v-661h123v661h-123zM203 764h123v661h-123v-661z" />
<glyph unicode="&#xa7;" horiz-adv-x="1218" d="M145 2q10 -180 126 -273.5t343 -93.5q123 0 212 32t146.5 83t84 117.5t26.5 134.5q0 94 -34.5 156.5t-112.5 107.5q66 41 97.5 106.5t31.5 143.5q0 117 -52 180.5t-131 98t-171.5 51t-171 39t-131 63.5t-52.5 121q0 33 10.5 65.5t37 58.5t73.5 41t119 15q137 0 188.5 -49 t49.5 -141l165 14q-2 86 -36.5 144.5t-90 94.5t-125 50t-141.5 14q-92 0 -169 -22.5t-132 -63.5t-85 -102.5t-30 -136.5q0 -82 33 -146.5t105 -101.5q-68 -35 -107 -100.5t-39 -151.5q0 -117 53.5 -180.5t134.5 -99t174 -54t174 -43t134 -66.5t53 -124q0 -53 -21.5 -92 t-59.5 -65t-89 -39t-108 -13q-86 0 -143.5 16t-92.5 47t-51 76t-21 102zM352 569q0 68 28 108t87 68q70 -20 145.5 -35.5t138 -39t102.5 -63.5t40 -109q0 -59 -23.5 -103t-78.5 -71q-96 23 -176 40t-138.5 41.5t-91.5 62.5t-33 101z" />
<glyph unicode="&#xa8;" horiz-adv-x="622" d="M53 1214h176v181h-176v-181zM371 1214h176v181h-176v-181z" />
<glyph unicode="&#xa9;" horiz-adv-x="1544" d="M59 692q0 -147 56.5 -277t153 -226.5t226.5 -152.5t277 -56t277.5 56t226.5 152.5t152.5 226.5t56.5 277t-56.5 277.5t-152.5 226.5t-226.5 152.5t-277.5 56.5t-277 -56.5t-226.5 -152.5t-153 -226t-56.5 -278zM170 692q0 125 47 234.5t129 191.5t191.5 129t234.5 47 t234.5 -47t191.5 -129t129 -191.5t47 -234.5t-47 -234.5t-129 -191.5t-191.5 -129t-234.5 -47t-234.5 47t-191.5 129t-129 191.5t-47 234.5zM426 698q0 -90 18.5 -165.5t58.5 -131t103.5 -87t155.5 -31.5q61 0 109.5 12t88 34.5t73.5 53.5t67 70l-86 86 q-45 -59 -101.5 -98.5t-134.5 -39.5q-100 0 -152.5 81t-52.5 218q0 49 8.5 100.5t31 93.5t59.5 69.5t96 27.5q61 0 97 -15t53.5 -41t21.5 -59.5t4 -70.5h129q2 80 -19.5 137t-61.5 93t-93 52.5t-113 16.5q-96 0 -163.5 -35t-111.5 -92t-64.5 -130t-20.5 -149z" />
<glyph unicode="&#xaa;" horiz-adv-x="798" d="M66 909q0 -90 66.5 -143t191.5 -53q98 0 165.5 33.5t108.5 91.5l8 -109h117q-4 35 -7 79t-3 89v299q0 74 -18.5 123t-54.5 76.5t-87 39t-119 11.5q-104 0 -186 -24.5t-148 -59.5l37 -86q61 35 134 55.5t157 20.5t127 -36t43 -130v-31h-90q-219 0 -330.5 -61.5 t-111.5 -184.5zM80 502h651v106h-651v-106zM190 915q0 86 81 115t237 29h90v-31q0 -47 -17.5 -88t-50 -73.5t-80 -51t-104.5 -18.5q-78 0 -117 32.5t-39 85.5z" />
<glyph unicode="&#xab;" horiz-adv-x="813" d="M121 592l166 -344h112l-118 344l118 334h-114zM418 592l153 -344h113l-106 344l106 334h-115z" />
<glyph unicode="&#xac;" horiz-adv-x="1220" d="M100 608h858v-458h142v589h-1000v-131z" />
<glyph unicode="&#xad;" horiz-adv-x="446" d="M0 459h432v127h-432v-127z" />
<glyph unicode="&#xae;" horiz-adv-x="1241" d="M51 1012q0 -115 44 -216.5t120 -177t178.5 -118.5t220.5 -43q117 0 219.5 44t179.5 119.5t121 176t44 215.5q0 117 -44 217t-120 176t-179.5 119t-220.5 43t-219 -44t-179 -119t-121 -176.5t-44 -215.5zM160 1014q0 94 35.5 179t97 147.5t144.5 99.5t177 37t177 -37 t144.5 -100.5t97.5 -148.5t36 -179q0 -96 -36 -180t-97.5 -146.5t-144 -99.5t-177.5 -37q-94 0 -177 37t-144.5 100.5t-97 148.5t-35.5 179zM412 729h125v223h69l113 -223h137l-129 248q53 23 84 66.5t31 103.5q0 172 -209 172h-221v-590zM535 1038v191h73q55 0 82 -18.5 t27 -71.5q0 -100 -111 -101h-71z" />
<glyph unicode="&#xaf;" horiz-adv-x="882" d="M121 1339h641v119h-641v-119z" />
<glyph unicode="&#xb0;" horiz-adv-x="813" d="M98 1108q0 -63 23.5 -118.5t65.5 -95.5t97.5 -62.5t118.5 -22.5t120 23.5t99 64.5t66.5 96.5t24.5 118.5t-23.5 118.5t-65.5 95.5t-97.5 62.5t-118.5 22.5t-120 -23.5t-99 -64.5t-66.5 -96.5t-24.5 -118.5zM223 1110q0 76 52.5 130t127.5 54q76 0 130.5 -54t54.5 -130 t-52.5 -130t-127.5 -54q-76 0 -130.5 54t-54.5 130z" />
<glyph unicode="&#xb1;" horiz-adv-x="1220" d="M84 0h1051v131h-1051v-131zM84 731h459v-432h131v432h461v131h-461v428h-131v-428h-459v-131z" />
<glyph unicode="&#xb2;" horiz-adv-x="731" d="M78 1108h129q-2 160 139 160q61 0 99 -32t38 -85q0 -59 -53 -110.5t-127 -106.5q-68 -51 -125 -101.5t-98 -113.5v-86h538l17 119h-375q27 35 86.5 72.5t119.5 85.5t105 107.5t45 139.5q0 47 -19 88t-54 72t-84 48t-107 17q-131 0 -202.5 -72.5t-71.5 -201.5z" />
<glyph unicode="&#xb3;" horiz-adv-x="731" d="M82 1153h137q0 53 27.5 84t103.5 31q53 0 88 -27t35 -76q0 -37 -31.5 -66.5t-119.5 -29.5h-91v-113h91q102 0 139 -34.5t37 -77.5q0 -35 -34 -72t-114 -37q-45 0 -72.5 6.5t-42 20.5t-17.5 38.5t1 61.5h-135q-8 -68 8.5 -114t50 -74.5t84 -40.5t111.5 -12q70 0 125 18 t93 50t57.5 74t19.5 89q0 59 -31 103t-82 67q39 25 62.5 64.5t23.5 87.5q0 96 -72.5 150t-177.5 54q-119 0 -196.5 -59t-77.5 -166z" />
<glyph unicode="&#xb4;" horiz-adv-x="772" d="M201 1147h125l270 315h-184z" />
<glyph unicode="&#xb6;" horiz-adv-x="1105" d="M63 897q0 -96 38 -182t104.5 -150.5t159 -99.5t200.5 -29v-774h129v1567h160v-1567h129v1696h-459q-96 0 -179 -36t-146.5 -99.5t-99.5 -147.5t-36 -178z" />
<glyph unicode="&#xb7;" d="M193 481h225v230h-225v-230z" />
<glyph unicode="&#xb8;" horiz-adv-x="487" d="M29 -348h348l26 121l-96 227h-102l98 -227h-248z" />
<glyph unicode="&#xb9;" horiz-adv-x="731" d="M92 1290l45 -114l150 65v-489h-164v-111h450v113h-159v626h-88z" />
<glyph unicode="&#xba;" horiz-adv-x="813" d="M61 1065q0 -180 84 -271.5t242 -91.5q90 0 157.5 30t111.5 80t66.5 119.5t22.5 149.5q0 76 -18 141.5t-58 113.5t-103.5 75t-153.5 27q-88 0 -153.5 -28t-110 -77t-66 -117.5t-21.5 -150.5zM72 502h651v106h-651v-106zM193 1081q0 123 52 189.5t156 66.5q100 0 155.5 -61 t55.5 -211q0 -139 -57 -200.5t-162 -61.5q-88 0 -144 65.5t-56 212.5z" />
<glyph unicode="&#xbb;" horiz-adv-x="813" d="M123 248h115l151 334l-153 344h-113l106 -344zM408 248h114l164 334l-166 344h-112l118 -344z" />
<glyph unicode="&#xbc;" horiz-adv-x="1454" d="M92 1290l45 -114l150 65v-489h-160v-111h446v113h-159v626h-88zM281 0h137l776 1358h-135zM733 164h340v-164h129v164h113v115h-113v460h-153l-316 -491v-84zM885 279l188 292v-292h-188z" />
<glyph unicode="&#xbd;" horiz-adv-x="1464" d="M92 1290l45 -114l150 65v-489h-160v-111h446v113h-159v626h-88zM281 0h137l776 1358h-135zM840 475h129q-2 160 139 160q61 0 99 -32t38 -85q0 -59 -53 -110.5t-127 -106.5q-68 -51 -125 -101t-98 -114v-86h538l17 119h-375q27 35 86 72.5t119.5 86t105.5 107.5t45 139 q0 47 -19.5 88t-54 72t-84 48.5t-106.5 17.5q-131 0 -202.5 -73t-71.5 -202z" />
<glyph unicode="&#xbe;" horiz-adv-x="1454" d="M82 1153h137q0 53 27.5 84t103.5 31q53 0 88 -27t35 -76q0 -37 -31.5 -66.5t-119.5 -29.5h-91v-113h91q102 0 139 -34.5t37 -77.5q0 -35 -34 -72t-114 -37q-45 0 -72.5 6.5t-42 20.5t-17.5 38.5t1 61.5h-135q-8 -68 8.5 -114t50 -74.5t84 -40.5t111.5 -12q70 0 125 18 t93 50t57.5 74t19.5 89q0 59 -31 103t-82 67q39 25 62.5 64.5t23.5 87.5q0 96 -72.5 150t-177.5 54q-119 0 -196.5 -59t-77.5 -166zM281 0h137l776 1358h-135zM733 164h340v-164h129v164h113v115h-113v460h-153l-316 -491v-84zM885 279l188 292v-292h-188z" />
<glyph unicode="&#xbf;" horiz-adv-x="1097" d="M98 162q0 -84 34 -153.5t94.5 -120t141.5 -78t175 -27.5q109 0 195.5 27.5t146 78t88 123t20.5 162.5h-153q4 -121 -68 -186.5t-205 -65.5q-59 0 -113.5 16.5t-95.5 49t-65.5 80t-24.5 108.5q0 72 31 126t77 100.5t99 88t97 88t72 102.5t22 130h-148q4 -57 -24.5 -101 t-75.5 -85t-102.5 -83t-103.5 -95.5t-81 -122t-33 -162.5zM481 958h209v199h-209v-199z" />
<glyph unicode="&#xc0;" horiz-adv-x="1107" d="M31 0h149q25 94 49.5 187.5t53.5 191.5h534q27 -94 52.5 -188.5t52.5 -190.5h172q-92 342 -201 680t-238 678h-200q-117 -328 -224.5 -665t-199.5 -693zM283 1638l211 -225h124l-151 225h-184zM319 508q53 180 111 359.5t117 357.5q125 -346 233 -717h-461z" />
<glyph unicode="&#xc1;" horiz-adv-x="1107" d="M31 0h149q25 94 49.5 187.5t53.5 191.5h534q27 -94 52.5 -188.5t52.5 -190.5h172q-92 342 -201 680t-238 678h-200q-117 -328 -224.5 -665t-199.5 -693zM319 508q53 180 111 359.5t117 357.5q125 -346 233 -717h-461zM492 1413h124l207 225h-184z" />
<glyph unicode="&#xc2;" horiz-adv-x="1107" d="M31 0h149q25 94 49.5 187.5t53.5 191.5h534q27 -94 52.5 -188.5t52.5 -190.5h172q-92 342 -201 680t-238 678h-200q-117 -328 -224.5 -665t-199.5 -693zM299 1409h133l125 143l125 -143h143l-196 229h-137zM319 508q53 180 109.5 356t116.5 355q0 2 1 3t1 3 q124 -346 233 -717h-461z" />
<glyph unicode="&#xc3;" horiz-adv-x="1107" d="M31 0h149q25 94 49.5 187.5t53.5 191.5h534q27 -94 52.5 -188.5t52.5 -190.5h172q-92 342 -201 680t-238 678h-200q-117 -328 -224.5 -665t-199.5 -693zM174 1503l86 -61q25 41 57.5 61.5t85.5 20.5q31 0 58.5 -11.5t57.5 -23.5t67 -23.5t86 -11.5q72 0 130 34t91 89 l-86 61q-23 -33 -56.5 -51t-72.5 -18q-43 0 -73 11t-58.5 23.5t-62 23.5t-85.5 11q-76 0 -135 -36.5t-90 -98.5zM319 508q53 180 111 359.5t117 357.5q125 -346 233 -717h-461z" />
<glyph unicode="&#xc4;" horiz-adv-x="1107" d="M31 0h149q25 94 49.5 187.5t53.5 191.5h534q27 -94 52.5 -188.5t52.5 -190.5h172q-92 342 -201 680t-238 678h-200q-117 -328 -224.5 -665t-199.5 -693zM303 1458h176v180h-176v-180zM319 508q53 180 109.5 356t116.5 355q0 2 1 3t1 3q124 -346 233 -717h-461zM621 1458 h176v180h-176v-180z" />
<glyph unicode="&#xc5;" horiz-adv-x="1107" d="M31 0h149q25 94 49.5 187.5t53.5 191.5h534q27 -94 52.5 -188.5t52.5 -190.5h172q-90 334 -194.5 662.5t-229.5 658.5q29 25 47 60.5t18 76.5q0 78 -53 128t-131 50q-37 0 -72 -14t-60.5 -38.5t-41 -58.5t-15.5 -71q0 -47 20.5 -83.5t55.5 -61.5q-113 -317 -217 -643 t-190 -666zM319 508q53 180 110.5 358t117.5 359q124 -346 233 -717h-461zM455 1458q0 39 26.5 66.5t65.5 27.5q41 0 68.5 -28.5t27.5 -69.5q0 -39 -26.5 -66.5t-65.5 -27.5q-41 0 -68.5 28.5t-27.5 69.5z" />
<glyph unicode="&#xc6;" horiz-adv-x="1638" d="M8 0h160q37 88 75 174t79 176h413v-350h838v145h-666v496h523v139h-523v430h635l17 148h-895q-172 -326 -338 -664t-318 -694zM379 479q84 180 171 356.5t177 356.5l8 16v-729h-356z" />
<glyph unicode="&#xc7;" horiz-adv-x="1226" d="M84 659q0 -133 28.5 -250.5t88 -207.5t148.5 -147.5t210 -69.5l90 -211h-248l-26 -121h348l27 121l-88 207q102 6 184 42.5t141.5 100t94 147.5t42.5 187h-159q-10 -68 -33 -128.5t-63 -106.5t-98 -72.5t-136 -26.5q-176 0 -271.5 147.5t-95.5 407.5q0 88 17.5 186.5 t59.5 180t113.5 136t182.5 54.5q76 0 131 -25.5t88 -69.5t46.5 -102.5t6.5 -124.5h160q12 113 -14.5 199t-83.5 144.5t-141 89t-187 30.5q-147 0 -252.5 -58t-175 -156.5t-102.5 -228.5t-33 -274z" />
<glyph unicode="&#xc8;" horiz-adv-x="1067" d="M164 0h837v145h-665v496h522v139h-522v430h635l16 148h-823v-1358zM164 0h837v145h-665v496h522v139h-522v430h635l16 148h-823v-1358zM164 0h837v145h-665v496h522v139h-522v430h635l16 148h-823v-1358zM344 1638l211 -225h125l-152 225h-184z" />
<glyph unicode="&#xc9;" horiz-adv-x="1067" d="M164 0h837v145h-665v496h522v139h-522v430h635l16 148h-823v-1358zM504 1411h125l211 227h-185z" />
<glyph unicode="&#xca;" horiz-adv-x="1067" d="M164 0h837v145h-665v496h522v139h-522v430h635l16 148h-823v-1358zM311 1409h133l125 143l125 -143h144l-197 229h-137z" />
<glyph unicode="&#xcb;" horiz-adv-x="1067" d="M164 0h837v145h-665v496h522v139h-522v430h635l16 148h-823v-1358zM336 1446h176v180h-176v-180zM653 1446h176v180h-176v-180z" />
<glyph unicode="&#xcc;" horiz-adv-x="499" d="M-25 1638l211 -225h125l-151 225h-185zM164 0h172v1358h-172v-1358z" />
<glyph unicode="&#xcd;" horiz-adv-x="499" d="M164 0h172v1358h-172v-1358zM188 1413h125l211 225h-184z" />
<glyph unicode="&#xce;" horiz-adv-x="499" d="M-12 1413h133l121 137l131 -137h143l-203 223h-137zM164 0h172v1358h-172v-1358z" />
<glyph unicode="&#xcf;" horiz-adv-x="499" d="M6 1452h176v180h-176v-180zM164 0h172v1358h-172v-1358zM324 1452h176v180h-176v-180z" />
<glyph unicode="&#xd0;" horiz-adv-x="1306" d="M0 641h164v-641h422q164 0 284.5 54.5t199.5 151.5t117 228t38 285q0 125 -33 240.5t-105.5 203.5t-190.5 141.5t-290 53.5h-442v-578h-164v-139zM336 143v498h246v139h-246v434h248q137 0 227 -39.5t144.5 -109.5t76 -165t21.5 -204q0 -100 -22.5 -199.5t-75 -177 t-138.5 -127t-211 -49.5h-270z" />
<glyph unicode="&#xd1;" horiz-adv-x="1327" d="M164 0h143v1182l4 -6l686 -1176h166v1358h-141v-1100v-6l-645 1106h-213v-1358zM332 1503l86 -61q25 41 57.5 61.5t85.5 20.5q31 0 58.5 -11.5t57.5 -23.5t66.5 -23.5t85.5 -11.5q72 0 130.5 34t91.5 89l-86 61q-23 -33 -57 -51t-72 -18q-43 0 -73 11t-58.5 23.5 t-62.5 23.5t-85 11q-76 0 -135.5 -36.5t-89.5 -98.5z" />
<glyph unicode="&#xd2;" horiz-adv-x="1306" d="M88 659q0 -147 34 -271t101.5 -214t171 -141t242.5 -51q156 0 263.5 62t175 163.5t97 231.5t29.5 263t-30.5 255t-96 214.5t-169 147.5t-249.5 55q-150 0 -257 -58.5t-176.5 -156.5t-102.5 -228t-33 -272zM264 672q0 109 20.5 210t65.5 180t119 127t180 48q98 0 170 -41 t117 -115.5t66.5 -178t21.5 -228.5q0 -102 -19.5 -201.5t-64.5 -178.5t-116.5 -127t-178.5 -48q-104 0 -177 44t-118 118.5t-65.5 175t-20.5 215.5zM387 1638l211 -225h125l-152 225h-184z" />
<glyph unicode="&#xd3;" horiz-adv-x="1306" d="M88 659q0 -147 34 -271t101.5 -214t171 -141t242.5 -51q156 0 263.5 62t175 163.5t97 231.5t29.5 263t-30.5 255t-96 214.5t-169 147.5t-251.5 55q-156 0 -264 -62.5t-176 -163.5t-97.5 -229t-29.5 -260zM266 672q0 109 19.5 210t64.5 180t118 127t177 48q102 0 174 -41 t118 -114.5t66.5 -177t20.5 -230.5q0 -102 -19.5 -201.5t-64.5 -178.5t-116.5 -127t-178.5 -48q-104 0 -177 44t-117 118.5t-64.5 175t-20.5 215.5zM600 1413h125l207 225h-184z" />
<glyph unicode="&#xd4;" horiz-adv-x="1306" d="M88 659q0 -147 34 -271t101.5 -214t171 -141t242.5 -51q156 0 263.5 62t175 163.5t97 231.5t29.5 263t-30.5 255t-96 214.5t-169 147.5t-251.5 55q-156 0 -264 -62.5t-176 -163.5t-97.5 -229t-29.5 -260zM266 672q0 109 19.5 210t64.5 180t118 127t177 48q102 0 174 -41 t118 -114.5t66.5 -177t20.5 -230.5q0 -102 -19.5 -201.5t-64.5 -178.5t-116.5 -127t-178.5 -48q-104 0 -177 44t-117 118.5t-64.5 175t-20.5 215.5zM416 1413h133l117 139l114 -139h144l-187 225h-137z" />
<glyph unicode="&#xd5;" horiz-adv-x="1306" d="M88 659q0 -147 34 -271t101.5 -214t171 -141t242.5 -51q156 0 263.5 62t175 163.5t97 231.5t29.5 263t-30.5 255t-96 214.5t-169 147.5t-251.5 55q-156 0 -264 -62.5t-176 -163.5t-97.5 -229t-29.5 -260zM266 672q0 109 19.5 210t64.5 180t118 127t177 48q102 0 174 -41 t118 -114.5t66.5 -177t20.5 -230.5q0 -102 -19.5 -201.5t-64.5 -178.5t-116.5 -127t-178.5 -48q-104 0 -177 44t-117 118.5t-64.5 175t-20.5 215.5zM293 1503l86 -61q25 41 57.5 61.5t85.5 20.5q31 0 58.5 -11.5t57.5 -23.5t66.5 -23.5t86.5 -11.5q72 0 130 34t91 89l-86 61 q-23 -33 -56.5 -51t-72.5 -18q-43 0 -73 11t-58.5 23.5t-62.5 23.5t-85 11q-76 0 -135 -36.5t-90 -98.5z" />
<glyph unicode="&#xd6;" horiz-adv-x="1306" d="M88 659q0 -147 34 -271t101.5 -214t171 -141t242.5 -51q156 0 263.5 62t175 163.5t97 231.5t29.5 263t-30.5 255t-96 214.5t-169 147.5t-251.5 55q-156 0 -264 -62.5t-176 -163.5t-97.5 -229t-29.5 -260zM266 672q0 109 19.5 210t64.5 180t118 127t177 48q102 0 174 -41 t118 -114.5t66.5 -177t20.5 -230.5q0 -102 -19.5 -201.5t-64.5 -178.5t-116.5 -127t-178.5 -48q-104 0 -177 44t-117 118.5t-64.5 175t-20.5 215.5zM408 1458h176v180h-176v-180zM725 1458h176v180h-176v-180z" />
<glyph unicode="&#xd7;" horiz-adv-x="1220" d="M82 1100l432 -432l-428 -430l92 -93l430 428l432 -432l97 99l-432 434l430 430l-95 92l-430 -428l-430 430z" />
<glyph unicode="&#xd8;" horiz-adv-x="1306" d="M35 -92l102 -66l170 246q66 -51 148 -78.5t182 -27.5q156 0 263.5 62t175 163.5t97 231.5t29.5 263q0 141 -33.5 267.5t-105.5 220.5l164 237l-103 66l-149 -217q-61 47 -141 72.5t-179 25.5q-156 0 -264 -62.5t-176 -163.5t-97.5 -229t-29.5 -260q0 -147 33 -268 t98 -213zM266 672q0 109 19.5 210t64.5 180t118 127t177 48q150 0 240 -90l-559 -817q-31 72 -45.5 158.5t-14.5 183.5zM397 219l564 821q35 -76 49 -167t14 -199q0 -102 -19.5 -201.5t-64.5 -178.5t-116.5 -127t-178.5 -48q-82 0 -142.5 26.5t-105.5 73.5z" />
<glyph unicode="&#xd9;" horiz-adv-x="1263" d="M164 498q0 -127 22.5 -223.5t77.5 -162t146.5 -98t228.5 -32.5q125 0 213 35.5t143.5 103t80 165t24.5 220.5v852h-144v-860q0 -197 -69.5 -286t-229.5 -89q-104 0 -167.5 24.5t-97.5 74.5t-45 125t-11 175v836h-172v-860zM391 1638l211 -225h125l-152 225h-184z" />
<glyph unicode="&#xda;" horiz-adv-x="1263" d="M164 498q0 -127 22.5 -223.5t77.5 -162t146.5 -98t228.5 -32.5q125 0 213 35.5t143.5 103t80 165t24.5 220.5v852h-144v-860q0 -197 -69.5 -286t-229.5 -89q-104 0 -167.5 24.5t-97.5 74.5t-45 125t-11 175v836h-172v-860zM567 1413h125l207 225h-184z" />
<glyph unicode="&#xdb;" horiz-adv-x="1263" d="M164 498q0 -127 22.5 -223.5t77.5 -162t146.5 -98t228.5 -32.5q125 0 213 35.5t143.5 103t80 165t24.5 220.5v852h-144v-860q0 -197 -69.5 -286t-229.5 -89q-104 0 -167.5 24.5t-97.5 74.5t-45 125t-11 175v836h-172v-860zM391 1413h133l117 139l117 -139h143l-188 225 h-138z" />
<glyph unicode="&#xdc;" horiz-adv-x="1263" d="M164 498q0 -127 22.5 -223.5t77.5 -162t146.5 -98t228.5 -32.5q125 0 213 35.5t143.5 103t80 165t24.5 220.5v852h-144v-860q0 -197 -69.5 -286t-229.5 -89q-104 0 -167.5 24.5t-97.5 74.5t-45 125t-11 175v836h-172v-860zM393 1458h176v180h-176v-180zM711 1458h176v180 h-176v-180z" />
<glyph unicode="&#xdd;" horiz-adv-x="1046" d="M0 1358q98 -201 206.5 -395.5t229.5 -382.5v-580h168v584q119 184 228.5 378.5t209.5 395.5h-153q-74 -162 -163 -319t-183 -304h-4q-190 303 -342 623h-197zM455 1413h125l206 225h-184z" />
<glyph unicode="&#xde;" horiz-adv-x="1107" d="M203 0h172v309h196q119 0 211 32t154.5 89t94.5 134t32 167q0 184 -114.5 296t-338.5 112h-235v237h-172v-1376zM375 449v546h221q86 0 143.5 -22.5t90 -60.5t46 -88t13.5 -107q0 -129 -77 -198.5t-226 -69.5h-211z" />
<glyph unicode="&#xdf;" horiz-adv-x="1177" d="M141 0h160v983q0 61 16.5 120.5t49 106.5t83 76t119.5 29q209 0 209 -176q0 -70 -40 -110t-87 -75.5t-87 -80t-40 -119.5q0 -66 29 -108t72 -73.5t94 -58.5t94 -58.5t71.5 -76.5t28.5 -113q0 -76 -49 -120t-141 -44q-143 0 -207 41l-33 -127q53 -20 110.5 -28t117.5 -8 q88 0 157.5 23.5t117.5 64.5t73.5 97t25.5 122q0 84 -29.5 141t-75.5 97t-98.5 69t-98.5 55.5t-75.5 57t-29.5 73.5t40 78t89 74t89 89t40 126q0 147 -96.5 219t-251.5 72q-121 0 -205 -43t-138.5 -110.5t-79 -149.5t-24.5 -160v-975z" />
<glyph unicode="&#xe0;" horiz-adv-x="1081" d="M88 266q0 -133 84 -209.5t252 -76.5q131 0 218 50t140 136l13 -166h157q-4 51 -9 116.5t-5 131.5v440q0 109 -22.5 179.5t-68.5 111.5t-114.5 57.5t-159.5 16.5q-139 0 -242.5 -35t-195.5 -86l51 -115q84 51 175.5 81t203.5 30q115 0 167 -53.5t52 -190.5v-63h-110 q-297 0 -441.5 -90.5t-144.5 -264.5zM246 1462l270 -315h125l-211 315h-184zM258 285q0 66 25.5 107.5t78 66t130 34t182.5 9.5h110v-49q0 -68 -22.5 -131.5t-64.5 -111.5t-103.5 -77t-138.5 -29q-104 0 -150.5 51.5t-46.5 129.5z" />
<glyph unicode="&#xe1;" horiz-adv-x="1081" d="M88 266q0 -133 84 -209.5t252 -76.5q131 0 218 50t140 136l13 -166h157q-4 51 -9 116.5t-5 131.5v440q0 109 -22.5 179.5t-68.5 111.5t-114.5 57.5t-159.5 16.5q-139 0 -242.5 -35t-195.5 -86l51 -115q84 51 175.5 81t203.5 30q115 0 167 -53.5t52 -190.5v-63h-110 q-297 0 -441.5 -90.5t-144.5 -264.5zM258 285q0 66 25.5 107.5t78 66t130 34t182.5 9.5h110v-49q0 -68 -22.5 -131.5t-64.5 -111.5t-103.5 -77t-138.5 -29q-104 0 -150.5 51.5t-46.5 129.5zM496 1147h125l270 315h-184z" />
<glyph unicode="&#xe2;" horiz-adv-x="1081" d="M88 266q0 -133 84 -209.5t252 -76.5q131 0 218 50t140 136l13 -166h157q-4 51 -9 116.5t-5 131.5v440q0 109 -22.5 179.5t-68.5 111.5t-114.5 57.5t-159.5 16.5q-139 0 -242.5 -35t-195.5 -86l51 -115q84 51 175.5 81t203.5 30q115 0 167 -53.5t52 -190.5v-63h-110 q-297 0 -441.5 -90.5t-144.5 -264.5zM258 285q0 66 25.5 107.5t78 66t130 34t182.5 9.5h110v-49q0 -68 -22.5 -131.5t-64.5 -111.5t-103.5 -77t-138.5 -29q-104 0 -150.5 51.5t-46.5 129.5zM268 1151h133l156 184l154 -184h143l-225 270h-137z" />
<glyph unicode="&#xe3;" horiz-adv-x="1081" d="M88 266q0 -133 84 -209.5t252 -76.5q131 0 218 50t140 136l13 -166h157q-4 51 -9 116.5t-5 131.5v440q0 109 -22.5 179.5t-68.5 111.5t-114.5 57.5t-159.5 16.5q-139 0 -242.5 -35t-195.5 -86l51 -115q84 51 175.5 81t203.5 30q115 0 167 -53.5t52 -190.5v-63h-110 q-297 0 -441.5 -90.5t-144.5 -264.5zM182 1276l88 -64q29 47 57.5 77t82.5 30q31 0 61.5 -16.5t65 -35t74.5 -34.5t89 -16q136 -1 218 159l-84 66q-23 -51 -54.5 -81t-64.5 -30q-49 0 -86 16.5t-71 35t-69.5 35t-87.5 16.5q-72 0 -128 -43t-91 -115zM258 285 q0 66 25.5 107.5t78 66t130 34t182.5 9.5h110v-49q0 -68 -22.5 -131.5t-64.5 -111.5t-103.5 -77t-138.5 -29q-104 0 -150.5 51.5t-46.5 129.5z" />
<glyph unicode="&#xe4;" horiz-adv-x="1081" d="M88 266q0 -133 84 -209.5t252 -76.5q131 0 218 50t140 136l13 -166h157q-4 51 -9 116.5t-5 131.5v440q0 109 -22.5 179.5t-68.5 111.5t-114.5 57.5t-159.5 16.5q-139 0 -242.5 -35t-195.5 -86l51 -115q84 51 175.5 81t203.5 30q115 0 167 -53.5t52 -190.5v-63h-110 q-297 0 -441.5 -90.5t-144.5 -264.5zM258 285q0 66 25.5 107.5t78 66t130 34t182.5 9.5h110v-49q0 -68 -22.5 -131.5t-64.5 -111.5t-103.5 -77t-138.5 -29q-104 0 -150.5 51.5t-46.5 129.5zM317 1214h177v181h-177v-181zM635 1214h176v181h-176v-181z" />
<glyph unicode="&#xe5;" horiz-adv-x="1081" d="M88 266q0 -133 84 -209.5t252 -76.5q131 0 218 50t140 136l13 -166h157q-4 51 -9 116.5t-5 131.5v440q0 109 -22.5 179.5t-68.5 111.5t-114.5 57.5t-159.5 16.5q-139 0 -242.5 -35t-195.5 -86l51 -115q84 51 175.5 81t203.5 30q115 0 167 -53.5t52 -190.5v-63h-110 q-297 0 -441.5 -90.5t-144.5 -264.5zM258 285q0 66 25.5 107.5t78 66t130 34t182.5 9.5h110v-49q0 -68 -22.5 -131.5t-64.5 -111.5t-103.5 -77t-138.5 -29q-104 0 -150.5 51.5t-46.5 129.5zM381 1331q0 -78 53 -128t131 -50q37 0 72 14.5t60.5 39t41 58t15.5 70.5 q0 78 -53.5 128t-131.5 50q-37 0 -71.5 -14t-60 -38.5t-41 -58.5t-15.5 -71zM473 1335q0 39 26.5 67t65.5 28q41 0 69 -29t28 -70q0 -39 -27 -66.5t-66 -27.5q-41 0 -68.5 28.5t-27.5 69.5z" />
<glyph unicode="&#xe6;" horiz-adv-x="1828" d="M88 266q0 -133 90 -209.5t258 -76.5q127 0 241 52t181 179q51 -113 153.5 -172t252.5 -59q143 0 251.5 44t210.5 121l-79 111q-66 -55 -161 -98t-210 -43q-152 0 -228.5 83t-84.5 257l-2 49h741q4 131 -16.5 232.5t-71.5 172t-135 107.5t-207 37q-117 0 -205 -40 t-147 -106q-43 86 -127 116t-207 30q-139 0 -249 -35t-202 -86l51 -115q84 51 181.5 81t210.5 30q115 0 173 -53.5t58 -190.5v-61h-123q-297 0 -447.5 -91.5t-150.5 -265.5zM258 285q0 66 27.5 107.5t82 66t134.5 35t184 10.5h123v-51q0 -68 -24.5 -131.5t-68.5 -111.5 t-107.5 -77t-141.5 -29q-104 0 -156.5 51.5t-52.5 129.5zM965 623q2 57 20.5 113.5t55 100.5t92 71.5t131.5 27.5q145 0 207.5 -85t60.5 -228h-567z" />
<glyph unicode="&#xe7;" horiz-adv-x="999" d="M82 516q0 -106 20.5 -199.5t64.5 -164t116.5 -115.5t177.5 -55l90 -209h-248l-27 -121h349l26 121l-88 209q72 4 129.5 24.5t103.5 51t82.5 67.5t71.5 74l-98 96q-59 -78 -136 -128t-181 -50q-88 0 -143.5 41t-87.5 102.5t-43 133t-11 132.5q0 63 13 134t45 129.5 t85 96.5t133 38q111 0 181.5 -58.5t64.5 -191.5h146q2 100 -28 173t-82 118t-119.5 66.5t-143.5 21.5q-123 0 -211 -46t-144.5 -122t-82 -172.5t-25.5 -196.5z" />
<glyph unicode="&#xe8;" horiz-adv-x="1099" d="M82 504q0 -242 118.5 -383t354.5 -141q143 0 252 43.5t211 121.5l-80 111q-66 -55 -161 -98t-210 -43q-147 0 -222 76.5t-89 230.5q-2 18 -3 38.5t-1 43.5h741q4 131 -16.5 232.5t-71.5 172t-135 107.5t-207 37t-213 -43t-149.5 -117t-89 -174.5t-29.5 -214.5zM244 1462 l270 -315h125l-211 315h-184zM256 623q2 57 20.5 113.5t55.5 100.5t92 71.5t131 27.5q145 0 207.5 -85t60.5 -228h-567z" />
<glyph unicode="&#xe9;" horiz-adv-x="1099" d="M82 504q0 -242 118.5 -383t354.5 -141q143 0 252 43.5t211 121.5l-80 111q-66 -55 -161 -98t-210 -43q-147 0 -222 76.5t-89 230.5q-2 18 -3 38.5t-1 43.5h741q4 131 -16.5 232.5t-71.5 172t-135 107.5t-207 37t-213 -43t-149.5 -117t-89 -174.5t-29.5 -214.5zM256 623 q2 57 20.5 113.5t55.5 100.5t92 71.5t131 27.5q145 0 207.5 -85t60.5 -228h-567zM492 1147h124l271 315h-185z" />
<glyph unicode="&#xea;" horiz-adv-x="1099" d="M82 504q0 -242 118.5 -383t354.5 -141q143 0 252 43.5t211 121.5l-80 111q-66 -55 -161 -98t-210 -43q-94 0 -155.5 30.5t-96 83t-49 124t-14.5 151.5h741q4 131 -16.5 232.5t-71.5 172t-135 107.5t-207 37t-213 -43t-149.5 -117t-89 -174.5t-29.5 -214.5zM256 623 q2 57 20.5 113.5t55.5 100.5t92 71.5t131 27.5q145 0 207.5 -85t60.5 -228h-567zM264 1155h133l156 184l154 -184h143l-225 270h-138z" />
<glyph unicode="&#xeb;" horiz-adv-x="1099" d="M82 504q0 -242 118.5 -383t354.5 -141q143 0 252 43.5t211 121.5l-80 111q-66 -55 -161 -98t-210 -43q-147 0 -222 76.5t-89 230.5q-2 18 -3 38.5t-1 43.5h741q4 131 -16.5 232.5t-71.5 172t-135 107.5t-207 37t-213 -43t-149.5 -117t-89 -174.5t-29.5 -214.5zM256 623 q2 57 20.5 113.5t55.5 100.5t92 71.5t131 27.5q145 0 207.5 -85t60.5 -228h-567zM297 1214h176v181h-176v-181zM614 1214h177v181h-177v-181z" />
<glyph unicode="&#xec;" horiz-adv-x="446" d="M-113 1462l271 -315h125l-211 315h-185zM143 0h160v1032h-160v-1032z" />
<glyph unicode="&#xed;" horiz-adv-x="446" d="M143 0h160v1032h-160v-1032zM162 1147h125l270 315h-184z" />
<glyph unicode="&#xee;" horiz-adv-x="446" d="M-76 1155h133l156 184l154 -184h143l-225 270h-138zM143 0h160v1032h-160v-1032z" />
<glyph unicode="&#xef;" horiz-adv-x="446" d="M-27 1214h177v181h-177v-181zM143 0h160v1032h-160v-1032zM291 1214h176v181h-176v-181z" />
<glyph unicode="&#xf0;" horiz-adv-x="1097" d="M78 524q0 -104 21.5 -202.5t73.5 -174t138 -121.5t213 -46q117 0 207 44t150.5 118.5t91.5 172.5t31 207q0 141 -41 253t-102.5 200t-135.5 154.5t-139 117.5l151 78l-86 78l-166 -88q-51 31 -107 59.5t-108 46.5l-129 -63q51 -20 105.5 -48t107.5 -63l-164 -86l82 -71 l191 94q35 -23 78 -58.5t77 -83.5q-100 20 -196 -5t-173 -91.5t-124 -173t-47 -248.5zM254 535q0 184 71.5 285.5t213.5 101.5q137 0 212.5 -95.5t75.5 -318.5q0 -205 -77.5 -300t-221.5 -95q-123 0 -198.5 101t-75.5 321z" />
<glyph unicode="&#xf1;" horiz-adv-x="1101" d="M143 0h160v786q76 53 149.5 97.5t161.5 44.5q90 0 137.5 -67.5t47.5 -217.5v-643h159v653q0 217 -85 308.5t-236 91.5q-94 0 -174 -40t-174 -106l-2 -2l-13 127h-131v-1032zM162 1276l88 -64q29 47 57.5 77t81.5 30q31 0 61.5 -16.5t65.5 -35t75 -34.5t89 -16 q135 -1 217 159l-84 66q-23 -51 -54.5 -81t-64.5 -30q-49 0 -86 16.5t-70.5 35t-69.5 35t-87 16.5q-72 0 -128 -43t-91 -115z" />
<glyph unicode="&#xf2;" horiz-adv-x="1089" d="M82 508q0 -266 114.5 -397t327.5 -131q121 0 212 43t151.5 117.5t90.5 176t30 218.5q0 113 -25 207t-79 163.5t-140 108.5t-209 39q-119 0 -207 -40t-147.5 -112t-89 -172t-29.5 -221zM221 1462l271 -315h124l-210 315h-185zM258 535q0 184 71.5 285.5t213.5 101.5 q137 0 212.5 -95.5t75.5 -318.5q0 -205 -77.5 -300t-221.5 -95q-123 0 -198.5 101t-75.5 321z" />
<glyph unicode="&#xf3;" horiz-adv-x="1089" d="M82 508q0 -266 114.5 -397t327.5 -131q121 0 212 43t151.5 117.5t90.5 176t30 218.5q0 113 -25 207t-79 163.5t-140 108.5t-209 39q-119 0 -207 -40t-147.5 -112t-89 -172t-29.5 -221zM258 535q0 184 71.5 285.5t213.5 101.5q137 0 212.5 -95.5t75.5 -318.5 q0 -205 -77.5 -300t-221.5 -95q-123 0 -198.5 101t-75.5 321zM485 1147h125l271 315h-185z" />
<glyph unicode="&#xf4;" horiz-adv-x="1089" d="M82 508q0 -266 114.5 -397t327.5 -131q121 0 212 43t151.5 117.5t90.5 176t30 218.5q0 113 -25 207t-79 163.5t-140 108.5t-209 39q-119 0 -207 -40t-147.5 -112t-89 -172t-29.5 -221zM258 535q0 184 71.5 285.5t213.5 101.5q137 0 212.5 -95.5t75.5 -318.5 q0 -205 -77.5 -300t-221.5 -95q-123 0 -198.5 101t-75.5 321zM264 1155h133l156 184l154 -184h143l-225 270h-138z" />
<glyph unicode="&#xf5;" horiz-adv-x="1089" d="M82 508q0 -266 114.5 -397t327.5 -131q121 0 212 43t151.5 117.5t90.5 176t30 218.5q0 113 -25 207t-79 163.5t-140 108.5t-209 39q-119 0 -207 -40t-147.5 -112t-89 -172t-29.5 -221zM182 1276l88 -64q29 47 57.5 77t82.5 30q31 0 61.5 -16.5t65 -35t74.5 -34.5t89 -16 q136 -1 218 159l-84 66q-23 -51 -54.5 -81t-64.5 -30q-49 0 -86 16.5t-71 35t-69.5 35t-87.5 16.5q-72 0 -128 -43t-91 -115zM258 535q0 184 71.5 285.5t213.5 101.5q137 0 212.5 -95.5t75.5 -318.5q0 -205 -77.5 -300t-221.5 -95q-123 0 -198.5 101t-75.5 321z" />
<glyph unicode="&#xf6;" horiz-adv-x="1089" d="M82 508q0 -266 114.5 -397t327.5 -131q121 0 212 43t151.5 117.5t90.5 176t30 218.5q0 113 -25 207t-79 163.5t-140 108.5t-209 39q-119 0 -207 -40t-147.5 -112t-89 -172t-29.5 -221zM258 535q0 184 71.5 285.5t213.5 101.5q137 0 212.5 -95.5t75.5 -318.5 q0 -205 -77.5 -300t-221.5 -95q-123 0 -198.5 101t-75.5 321zM299 1214h176v181h-176v-181zM616 1214h177v181h-177v-181z" />
<glyph unicode="&#xf7;" horiz-adv-x="1220" d="M84 602h1051v131h-1051v-131zM498 221h225v223h-225v-223zM498 907h225v221h-225v-221z" />
<glyph unicode="&#xf8;" horiz-adv-x="1089" d="M45 -86l90 -66l139 197q102 -66 250 -65q121 0 212 43t151.5 117.5t90.5 176t30 218.5t-27 214t-86 166l143 203l-90 66l-137 -195q-104 63 -256 64q-119 0 -207 -40t-147.5 -112t-89 -172t-29.5 -221q0 -256 108 -389zM258 535q0 184 71.5 285.5t213.5 101.5 q108 -1 178 -58l-420 -590q-20 49 -31.5 114t-11.5 147zM367 176l421 590q43 -96 43 -258q0 -205 -77.5 -300t-221.5 -95q-100 0 -165 63z" />
<glyph unicode="&#xf9;" horiz-adv-x="1103" d="M143 348q0 -201 80 -284.5t219 -83.5q100 0 186.5 42.5t184.5 114.5l16 -137h132v1032h-160v-772q-78 -59 -163 -107.5t-175 -48.5q-78 0 -119 61.5t-41 213.5v653h-160v-684zM227 1462l271 -315h125l-211 315h-185z" />
<glyph unicode="&#xfa;" horiz-adv-x="1103" d="M143 348q0 -201 80 -284.5t219 -83.5q100 0 186.5 42.5t184.5 114.5l16 -137h132v1032h-160v-772q-78 -59 -163 -107.5t-175 -48.5q-78 0 -119 61.5t-41 213.5v653h-160v-684zM496 1147h125l270 315h-184z" />
<glyph unicode="&#xfb;" horiz-adv-x="1103" d="M143 348q0 -201 80 -284.5t219 -83.5q100 0 185.5 41.5t183.5 113.5l2 2l16 -137h132v1032h-160v-772q-78 -59 -163 -107.5t-175 -48.5q-78 0 -119 61.5t-41 213.5v653h-160v-684zM262 1178h133l156 184l154 -184h143l-225 270h-138z" />
<glyph unicode="&#xfc;" horiz-adv-x="1103" d="M143 348q0 -201 80 -284.5t219 -83.5q100 0 185.5 41.5t183.5 113.5l2 2l16 -137h132v1032h-160v-772q-78 -59 -163 -107.5t-175 -48.5q-78 0 -119 61.5t-41 213.5v653h-160v-684zM293 1214h176v181h-176v-181zM610 1214h176v181h-176v-181z" />
<glyph unicode="&#xfd;" horiz-adv-x="854" d="M8 1032q45 -158 99.5 -313.5t102.5 -290.5t80 -236.5t32 -150.5q0 -100 -44.5 -164.5t-119.5 -112.5l84 -114q57 39 104 87t88 118.5t82 169t89 238.5t106.5 328.5t134.5 440.5h-150q-59 -209 -127 -407.5t-129 -397.5q-147 406 -264 805h-168zM449 1147h124l271 315 h-185z" />
<glyph unicode="&#xfe;" horiz-adv-x="1097" d="M158 -348h159v491q53 -84 134 -125t176 -41q86 0 160.5 37t129 106.5t86 171t31.5 230.5q0 92 -23.5 187.5t-72.5 172t-127 126t-184 49.5q-109 0 -178.5 -41t-131.5 -129v506h-159v-1741zM317 401v263q0 49 22.5 95t60.5 80.5t87.5 55t102.5 20.5q80 0 131 -38.5t82 -98 t42 -129t11 -133.5q0 -121 -25.5 -198.5t-65.5 -124t-86 -63.5t-89 -17q-55 0 -104.5 25.5t-87.5 66.5t-59.5 92t-21.5 104z" />
<glyph unicode="&#xff;" horiz-adv-x="854" d="M8 1032q53 -180 115.5 -366.5t142.5 -403.5q10 -27 20.5 -57.5t17.5 -61t12.5 -57.5t5.5 -45q0 -100 -44.5 -164.5t-119.5 -112.5l84 -114q43 27 79.5 59.5t70.5 78.5t64.5 108.5t63.5 150.5q53 145 98.5 275.5t85 250t74.5 233t68 226.5h-150q-59 -209 -123.5 -406.5 t-130.5 -394.5l-1 -1t-1 -3q-147 406 -264 805h-168zM195 1214h176v181h-176v-181zM512 1214h176v181h-176v-181z" />
<glyph unicode="&#x152;" horiz-adv-x="1744" d="M88 659q0 -147 34 -271t101.5 -214t171 -141t242.5 -51q82 0 147 18h895v145h-665v496h522v139h-522v430h635l16 148h-862q-72 16 -148 16q-156 0 -264 -62.5t-176 -163.5t-97.5 -229t-29.5 -260zM266 672q0 109 19.5 210t64.5 180t118 127t177 48q119 0 197 -53v-1004 q-84 -61 -197 -61q-104 0 -177 44t-117 118.5t-64.5 175t-20.5 215.5z" />
<glyph unicode="&#x153;" horiz-adv-x="1841" d="M82 508q0 -266 114.5 -397t327.5 -131q135 0 229.5 52t153.5 144q119 -197 389 -196q143 0 252 44t211 121l-80 111q-66 -55 -161 -98t-209 -43q-147 0 -222 76.5t-90 230.5q-2 18 -3 38.5t-1 43.5h742q4 131 -16.5 232.5t-72 172t-135.5 107.5t-206 37 q-133 0 -226.5 -49.5t-152.5 -139.5q-53 92 -144.5 140.5t-226.5 48.5q-119 0 -207 -40t-147.5 -112t-89 -172t-29.5 -221zM258 535q0 184 71.5 285.5t213.5 101.5q137 0 212.5 -95.5t75.5 -318.5q0 -205 -77.5 -300t-221.5 -95q-123 0 -198.5 101t-75.5 321zM997 623 q2 57 20.5 113.5t55.5 100.5t92.5 71.5t130.5 27.5q145 0 208 -85t61 -228h-568z" />
<glyph unicode="&#x178;" horiz-adv-x="1044" d="M0 1358q98 -201 206.5 -395.5t229.5 -382.5v-580h168v584q119 184 228.5 378.5t209.5 395.5h-153q-74 -162 -163 -318.5t-183 -304.5q0 -2 -2 -2v-2q-190 303 -344 627h-197zM293 1458h176v180h-176v-180zM610 1458h176v180h-176v-180z" />
<glyph unicode="&#x2c6;" horiz-adv-x="829" d="M121 1155h133l156 184l153 -184h144l-226 270h-137z" />
<glyph unicode="&#x2dc;" horiz-adv-x="940" d="M100 1276l88 -64q29 47 57.5 77t82.5 30q31 0 61.5 -16.5t65 -35t74.5 -34.5t89 -16q136 -1 218 159l-84 66q-23 -51 -54.5 -81t-64.5 -30q-49 0 -86 16.5t-71 35t-69.5 35t-87.5 16.5q-72 0 -128 -43t-91 -115z" />
<glyph unicode="&#x2000;" horiz-adv-x="819" />
<glyph unicode="&#x2001;" horiz-adv-x="1638" />
<glyph unicode="&#x2002;" horiz-adv-x="819" />
<glyph unicode="&#x2003;" horiz-adv-x="1638" />
<glyph unicode="&#x2004;" horiz-adv-x="546" />
<glyph unicode="&#x2005;" horiz-adv-x="409" />
<glyph unicode="&#x2006;" horiz-adv-x="273" />
<glyph unicode="&#x2007;" horiz-adv-x="273" />
<glyph unicode="&#x2008;" horiz-adv-x="204" />
<glyph unicode="&#x2009;" horiz-adv-x="327" />
<glyph unicode="&#x200a;" horiz-adv-x="91" />
<glyph unicode="&#x2010;" horiz-adv-x="446" d="M0 459h432v127h-432v-127z" />
<glyph unicode="&#x2011;" horiz-adv-x="446" d="M0 459h432v127h-432v-127z" />
<glyph unicode="&#x2012;" horiz-adv-x="446" d="M0 459h432v127h-432v-127z" />
<glyph unicode="&#x2013;" horiz-adv-x="1024" d="M0 567h1026v127h-1026v-127z" />
<glyph unicode="&#x2014;" horiz-adv-x="2457" d="M205 567h2050v127h-2050v-127z" />
<glyph unicode="&#x2018;" d="M195 897h223v233h-103l117 263l-76 34l-161 -313v-217z" />
<glyph unicode="&#x2019;" d="M195 930l75 -35l162 313v217h-223v-233h102z" />
<glyph unicode="&#x201a;" d="M195 -262l75 -35l162 313v217h-223v-233h102z" />
<glyph unicode="&#x201c;" horiz-adv-x="933" d="M190 942h209v209h-102l106 242l-71 32l-142 -286v-197zM504 942h209v209h-103l107 242l-72 32l-141 -286v-197z" />
<glyph unicode="&#x201d;" horiz-adv-x="933" d="M217 975l72 -33l141 287v196h-209v-208h103zM530 975l72 -33l141 287v196h-208v-208h102z" />
<glyph unicode="&#x201e;" horiz-adv-x="933" d="M217 -242l72 -32l141 286v197h-209v-209h103zM530 -242l72 -32l141 286v197h-208v-209h102z" />
<glyph unicode="&#x2022;" horiz-adv-x="1218" d="M262 705q0 -72 27.5 -135.5t75 -110.5t111 -75t134.5 -28q72 0 135.5 28t110.5 75t74.5 110.5t27.5 135.5t-27.5 135t-74.5 110t-110.5 75t-135.5 28t-135 -28t-110.5 -75t-75 -110.5t-27.5 -134.5z" />
<glyph unicode="&#x2026;" horiz-adv-x="1853" d="M201 0h225v229h-225v-229zM827 0h228v229h-228v-229zM1456 0h225v229h-225v-229z" />
<glyph unicode="&#x202f;" horiz-adv-x="327" />
<glyph unicode="&#x2039;" horiz-adv-x="528" d="M121 594l166 -344h112l-118 344l118 334h-114z" />
<glyph unicode="&#x203a;" horiz-adv-x="528" d="M121 250h115l163 334l-166 344h-112l119 -344z" />
<glyph unicode="&#x205f;" horiz-adv-x="409" />
<glyph unicode="&#x20ac;" horiz-adv-x="1220" d="M47 461h170q41 -248 176 -362.5t340 -114.5q82 0 146.5 19.5t114.5 50t91 69.5t78 80l-98 96q-59 -78 -136 -128t-181 -50q-139 0 -232.5 85t-128.5 255h444v121h-460q-2 20 -2 39v43v38t2 35h460v119h-448q35 186 124 286.5t218 100.5q111 0 181.5 -58.5t64.5 -191.5 h145q2 100 -27.5 173t-82 118t-120 66.5t-143.5 21.5q-213 0 -351 -128t-175 -388h-170v-119h158q-2 -23 -2 -41v-37v-41q0 -18 2 -36h-158v-121z" />
<glyph unicode="&#x2122;" horiz-adv-x="1351" d="M63 1282h211v-475h107v475h190l9 94h-517v-94zM623 807h108q6 88 16.5 189.5t16.5 228.5h2l104 -418h111l115 418h2q4 -125 13 -228.5t13 -189.5h125q-10 119 -22.5 260t-24.5 309h-166l-94 -356h-2l-84 356h-184q-14 -168 -26.5 -302t-22.5 -267z" />
<glyph unicode="&#x25fc;" horiz-adv-x="1054" d="M0 0v1055h1055v-1055h-1055z" />
<glyph unicode="&#xfb01;" horiz-adv-x="989" d="M6 905h182v-905h160v905h340v-905h160v1032h-500v98q0 88 26.5 135.5t117.5 47.5q35 0 66.5 -4t41.5 -13l29 123q-23 8 -60 13.5t-67 5.5q-90 0 -150.5 -20.5t-96.5 -62.5t-51.5 -103.5t-15.5 -143.5v-76h-182v-127zM680 1214h176v181h-176v-181z" />
<glyph unicode="&#xfb02;" horiz-adv-x="991" d="M6 905h182v-905h160v905h225l15 127h-240v74q0 104 51.5 155.5t165.5 51.5q35 0 81 -5.5t87 -15.5v-1292h160v1425h-160q-84 12 -158 13q-197 0 -292 -88t-95 -275v-43h-182v-127z" />
</font>
</defs>
</svg>
